G04 Layer_Physical_Order=2*
G04 Layer_Color=36540*
%FSLAX25Y25*%
%MOIN*%
G70*
G01*
G75*
%ADD27C,0.01000*%
%ADD28C,0.02000*%
%ADD31C,0.10000*%
%ADD32C,0.11024*%
%ADD34R,0.06500X0.06500*%
%ADD35C,0.06500*%
%ADD37C,0.02400*%
G36*
X510000Y375000D02*
X312500D01*
Y500000D01*
X510000D01*
Y375000D01*
D02*
G37*
%LPC*%
G36*
X389000Y404835D02*
X388298Y404696D01*
X387702Y404298D01*
X387304Y403702D01*
X387165Y403000D01*
X387304Y402298D01*
X387702Y401702D01*
X388298Y401304D01*
X389000Y401165D01*
X389702Y401304D01*
X390298Y401702D01*
X390696Y402298D01*
X390835Y403000D01*
X390696Y403702D01*
X390298Y404298D01*
X389702Y404696D01*
X389000Y404835D01*
D02*
G37*
G36*
X342500Y406835D02*
X341798Y406696D01*
X341202Y406298D01*
X340804Y405702D01*
X340665Y405000D01*
X340804Y404298D01*
X341202Y403702D01*
X341798Y403304D01*
X342500Y403165D01*
X343202Y403304D01*
X343798Y403702D01*
X344196Y404298D01*
X344335Y405000D01*
X344196Y405702D01*
X343798Y406298D01*
X343202Y406696D01*
X342500Y406835D01*
D02*
G37*
G36*
X361500Y410835D02*
X360798Y410696D01*
X360202Y410298D01*
X359804Y409702D01*
X359665Y409000D01*
X359804Y408298D01*
X360202Y407702D01*
X360798Y407304D01*
X361500Y407165D01*
X362202Y407304D01*
X362798Y407702D01*
X363196Y408298D01*
X363335Y409000D01*
X363196Y409702D01*
X362798Y410298D01*
X362202Y410696D01*
X361500Y410835D01*
D02*
G37*
G36*
X376000Y401835D02*
X375298Y401696D01*
X374702Y401298D01*
X374304Y400702D01*
X374165Y400000D01*
X374224Y399701D01*
X373799Y399276D01*
X373500Y399335D01*
X372798Y399196D01*
X372202Y398798D01*
X371804Y398202D01*
X371665Y397500D01*
X371804Y396798D01*
X372202Y396202D01*
X372798Y395804D01*
X373500Y395665D01*
X374202Y395804D01*
X374798Y396202D01*
X375196Y396798D01*
X375335Y397500D01*
X375276Y397799D01*
X375701Y398224D01*
X376000Y398165D01*
X376702Y398304D01*
X377298Y398702D01*
X377696Y399298D01*
X377835Y400000D01*
X377696Y400702D01*
X377298Y401298D01*
X376702Y401696D01*
X376000Y401835D01*
D02*
G37*
G36*
X370000Y403835D02*
X369298Y403696D01*
X368702Y403298D01*
X368304Y402702D01*
X368165Y402000D01*
X368304Y401298D01*
X368702Y400702D01*
X369298Y400304D01*
X370000Y400165D01*
X370702Y400304D01*
X371298Y400702D01*
X371696Y401298D01*
X371835Y402000D01*
X371696Y402702D01*
X371298Y403298D01*
X370702Y403696D01*
X370000Y403835D01*
D02*
G37*
G36*
X416500Y402835D02*
X415798Y402696D01*
X415202Y402298D01*
X414804Y401702D01*
X414739Y401372D01*
X414423Y401019D01*
X414201Y401036D01*
X413700Y401135D01*
X412998Y400996D01*
X412402Y400598D01*
X412004Y400002D01*
X411865Y399300D01*
X412004Y398598D01*
X412358Y398069D01*
X412406Y397852D01*
Y397648D01*
X412358Y397431D01*
X412004Y396902D01*
X411865Y396200D01*
X412004Y395498D01*
X412402Y394902D01*
X412998Y394504D01*
X413700Y394365D01*
X414402Y394504D01*
X414998Y394902D01*
X415396Y395498D01*
X415535Y396200D01*
X415396Y396902D01*
X415042Y397431D01*
X414994Y397648D01*
Y397852D01*
X415042Y398069D01*
X415396Y398598D01*
X415461Y398928D01*
X415777Y399281D01*
X415999Y399264D01*
X416500Y399165D01*
X417202Y399304D01*
X417798Y399702D01*
X418196Y400298D01*
X418335Y401000D01*
X418196Y401702D01*
X417798Y402298D01*
X417202Y402696D01*
X416500Y402835D01*
D02*
G37*
G36*
X360500Y415835D02*
X359798Y415696D01*
X359202Y415298D01*
X358804Y414702D01*
X358665Y414000D01*
X358804Y413298D01*
X359202Y412702D01*
X359798Y412304D01*
X360500Y412165D01*
X361202Y412304D01*
X361798Y412702D01*
X362196Y413298D01*
X362335Y414000D01*
X362196Y414702D01*
X361798Y415298D01*
X361202Y415696D01*
X360500Y415835D01*
D02*
G37*
G36*
X450000Y423883D02*
X448995Y423751D01*
X448058Y423363D01*
X447254Y422746D01*
X446637Y421942D01*
X446249Y421005D01*
X446117Y420000D01*
X446249Y418995D01*
X446637Y418058D01*
X447254Y417254D01*
X448058Y416637D01*
X448995Y416249D01*
X450000Y416117D01*
X451005Y416249D01*
X451942Y416637D01*
X452746Y417254D01*
X453363Y418058D01*
X453751Y418995D01*
X453883Y420000D01*
X453751Y421005D01*
X453363Y421942D01*
X452746Y422746D01*
X451942Y423363D01*
X451005Y423751D01*
X450000Y423883D01*
D02*
G37*
G36*
X355500Y421835D02*
X354798Y421696D01*
X354202Y421298D01*
X353804Y420702D01*
X353665Y420000D01*
X353804Y419298D01*
X354202Y418702D01*
X354798Y418304D01*
X355500Y418165D01*
X356202Y418304D01*
X356798Y418702D01*
X357196Y419298D01*
X357335Y420000D01*
X357196Y420702D01*
X356798Y421298D01*
X356202Y421696D01*
X355500Y421835D01*
D02*
G37*
G36*
X387500Y412835D02*
X386798Y412696D01*
X386202Y412298D01*
X385804Y411702D01*
X385665Y411000D01*
X385804Y410298D01*
X386202Y409702D01*
X386798Y409304D01*
X387500Y409165D01*
X388202Y409304D01*
X388798Y409702D01*
X389196Y410298D01*
X389335Y411000D01*
X389196Y411702D01*
X388798Y412298D01*
X388202Y412696D01*
X387500Y412835D01*
D02*
G37*
G36*
X410500Y420835D02*
X409798Y420696D01*
X409202Y420298D01*
X408804Y419702D01*
X408665Y419000D01*
X408804Y418298D01*
X409202Y417702D01*
X409798Y417304D01*
X410500Y417165D01*
X411202Y417304D01*
X411575Y417554D01*
X411647Y417546D01*
X412094Y417314D01*
X412196Y416798D01*
X412594Y416202D01*
X413190Y415804D01*
X413892Y415665D01*
X414594Y415804D01*
X414824Y415379D01*
X414702Y415298D01*
X414304Y414702D01*
X414165Y414000D01*
X414304Y413298D01*
X414702Y412702D01*
X415243Y412341D01*
X415381Y411817D01*
X415304Y411702D01*
X415165Y411000D01*
X415304Y410298D01*
X415702Y409702D01*
X416167Y409392D01*
X415972Y408921D01*
X415900Y408935D01*
X415198Y408796D01*
X414602Y408398D01*
X414204Y407802D01*
X414065Y407100D01*
X414204Y406398D01*
X414602Y405802D01*
X415198Y405404D01*
X415900Y405265D01*
X416602Y405404D01*
X417198Y405802D01*
X417596Y406398D01*
X417735Y407100D01*
X417596Y407802D01*
X417198Y408398D01*
X416733Y408708D01*
X416928Y409179D01*
X417000Y409165D01*
X417702Y409304D01*
X418298Y409702D01*
X418696Y410298D01*
X418835Y411000D01*
X418696Y411702D01*
X418298Y412298D01*
X417757Y412659D01*
X417619Y413183D01*
X417696Y413298D01*
X417835Y414000D01*
X417696Y414702D01*
X417298Y415298D01*
X416702Y415696D01*
X416000Y415835D01*
X415298Y415696D01*
X415068Y416121D01*
X415190Y416202D01*
X415588Y416798D01*
X415727Y417500D01*
X415588Y418202D01*
X415190Y418798D01*
X414594Y419196D01*
X413892Y419335D01*
X413190Y419196D01*
X412817Y418947D01*
X412745Y418954D01*
X412298Y419186D01*
X412196Y419702D01*
X411798Y420298D01*
X411202Y420696D01*
X410500Y420835D01*
D02*
G37*
G36*
X367500Y415335D02*
X366798Y415196D01*
X366202Y414798D01*
X365804Y414202D01*
X365665Y413500D01*
X365804Y412798D01*
X366202Y412202D01*
X366798Y411804D01*
X367500Y411665D01*
X368202Y411804D01*
X368798Y412202D01*
X369196Y412798D01*
X369335Y413500D01*
X369196Y414202D01*
X368798Y414798D01*
X368202Y415196D01*
X367500Y415335D01*
D02*
G37*
G36*
X480000Y404973D02*
X478713Y404804D01*
X477513Y404307D01*
X476483Y403517D01*
X475693Y402487D01*
X475196Y401287D01*
X475027Y400000D01*
X475196Y398713D01*
X475693Y397513D01*
X476483Y396483D01*
X477513Y395693D01*
X478713Y395196D01*
X480000Y395027D01*
X481287Y395196D01*
X482487Y395693D01*
X483517Y396483D01*
X484307Y397513D01*
X484804Y398713D01*
X484973Y400000D01*
X484804Y401287D01*
X484307Y402487D01*
X483517Y403517D01*
X482487Y404307D01*
X481287Y404804D01*
X480000Y404973D01*
D02*
G37*
G36*
X340000Y386383D02*
X338995Y386251D01*
X338058Y385863D01*
X337254Y385246D01*
X336637Y384442D01*
X336249Y383505D01*
X336117Y382500D01*
X336249Y381495D01*
X336637Y380558D01*
X337254Y379754D01*
X338058Y379137D01*
X338995Y378749D01*
X340000Y378617D01*
X341005Y378749D01*
X341942Y379137D01*
X342746Y379754D01*
X343363Y380558D01*
X343751Y381495D01*
X343883Y382500D01*
X343751Y383505D01*
X343363Y384442D01*
X342746Y385246D01*
X341942Y385863D01*
X341005Y386251D01*
X340000Y386383D01*
D02*
G37*
G36*
X350000D02*
X348995Y386251D01*
X348058Y385863D01*
X347254Y385246D01*
X346637Y384442D01*
X346249Y383505D01*
X346117Y382500D01*
X346249Y381495D01*
X346637Y380558D01*
X347254Y379754D01*
X348058Y379137D01*
X348995Y378749D01*
X350000Y378617D01*
X351005Y378749D01*
X351942Y379137D01*
X352746Y379754D01*
X353363Y380558D01*
X353751Y381495D01*
X353883Y382500D01*
X353751Y383505D01*
X353363Y384442D01*
X352746Y385246D01*
X351942Y385863D01*
X351005Y386251D01*
X350000Y386383D01*
D02*
G37*
G36*
X360000D02*
X358995Y386251D01*
X358058Y385863D01*
X357254Y385246D01*
X356637Y384442D01*
X356249Y383505D01*
X356117Y382500D01*
X356249Y381495D01*
X356637Y380558D01*
X357254Y379754D01*
X358058Y379137D01*
X358995Y378749D01*
X360000Y378617D01*
X361005Y378749D01*
X361942Y379137D01*
X362746Y379754D01*
X363363Y380558D01*
X363751Y381495D01*
X363883Y382500D01*
X363751Y383505D01*
X363363Y384442D01*
X362746Y385246D01*
X361942Y385863D01*
X361005Y386251D01*
X360000Y386383D01*
D02*
G37*
G36*
X405000Y387648D02*
X403538Y387456D01*
X402176Y386892D01*
X401006Y385994D01*
X400108Y384824D01*
X399544Y383462D01*
X399352Y382000D01*
X399544Y380538D01*
X400108Y379176D01*
X401006Y378006D01*
X402176Y377108D01*
X403538Y376544D01*
X405000Y376352D01*
X406462Y376544D01*
X407824Y377108D01*
X408994Y378006D01*
X409892Y379176D01*
X410456Y380538D01*
X410648Y382000D01*
X410456Y383462D01*
X409892Y384824D01*
X408994Y385994D01*
X407824Y386892D01*
X406462Y387456D01*
X405000Y387648D01*
D02*
G37*
G36*
X320000Y386383D02*
X318995Y386251D01*
X318058Y385863D01*
X317254Y385246D01*
X316637Y384442D01*
X316249Y383505D01*
X316117Y382500D01*
X316249Y381495D01*
X316637Y380558D01*
X317254Y379754D01*
X318058Y379137D01*
X318995Y378749D01*
X320000Y378617D01*
X321005Y378749D01*
X321942Y379137D01*
X322746Y379754D01*
X323363Y380558D01*
X323751Y381495D01*
X323883Y382500D01*
X323751Y383505D01*
X323363Y384442D01*
X322746Y385246D01*
X321942Y385863D01*
X321005Y386251D01*
X320000Y386383D01*
D02*
G37*
G36*
X330000D02*
X328995Y386251D01*
X328058Y385863D01*
X327254Y385246D01*
X326637Y384442D01*
X326249Y383505D01*
X326117Y382500D01*
X326249Y381495D01*
X326637Y380558D01*
X327254Y379754D01*
X328058Y379137D01*
X328995Y378749D01*
X330000Y378617D01*
X331005Y378749D01*
X331942Y379137D01*
X332746Y379754D01*
X333363Y380558D01*
X333751Y381495D01*
X333883Y382500D01*
X333751Y383505D01*
X333363Y384442D01*
X332746Y385246D01*
X331942Y385863D01*
X331005Y386251D01*
X330000Y386383D01*
D02*
G37*
G36*
X420000Y390648D02*
X418538Y390456D01*
X417176Y389892D01*
X416006Y388994D01*
X415108Y387824D01*
X414544Y386462D01*
X414352Y385000D01*
X414544Y383538D01*
X415108Y382176D01*
X416006Y381006D01*
X417176Y380108D01*
X418538Y379544D01*
X420000Y379352D01*
X421462Y379544D01*
X422824Y380108D01*
X423994Y381006D01*
X424892Y382176D01*
X425456Y383538D01*
X425648Y385000D01*
X425456Y386462D01*
X424892Y387824D01*
X423994Y388994D01*
X422824Y389892D01*
X421462Y390456D01*
X420000Y390648D01*
D02*
G37*
G36*
X370000Y396335D02*
X369298Y396196D01*
X368702Y395798D01*
X368304Y395202D01*
X368165Y394500D01*
X368304Y393798D01*
X368702Y393202D01*
X368929Y393051D01*
Y392449D01*
X368702Y392298D01*
X368304Y391702D01*
X368165Y391000D01*
X368304Y390298D01*
X368702Y389702D01*
X369298Y389304D01*
X370000Y389165D01*
X370702Y389304D01*
X371298Y389702D01*
X371696Y390298D01*
X371835Y391000D01*
X371696Y391702D01*
X371298Y392298D01*
X371071Y392449D01*
Y393051D01*
X371298Y393202D01*
X371696Y393798D01*
X371835Y394500D01*
X371696Y395202D01*
X371298Y395798D01*
X370702Y396196D01*
X370000Y396335D01*
D02*
G37*
G36*
X397000Y395335D02*
X396298Y395196D01*
X395702Y394798D01*
X395304Y394202D01*
X395165Y393500D01*
X395304Y392798D01*
X395702Y392202D01*
X396298Y391804D01*
X397000Y391665D01*
X397702Y391804D01*
X398298Y392202D01*
X398695Y392797D01*
X398697Y392798D01*
X399205Y392797D01*
X399304Y392298D01*
X399702Y391702D01*
X400298Y391304D01*
X401000Y391165D01*
X401702Y391304D01*
X402298Y391702D01*
X402696Y392298D01*
X402835Y393000D01*
X402696Y393702D01*
X402298Y394298D01*
X401702Y394696D01*
X401000Y394835D01*
X400298Y394696D01*
X399702Y394298D01*
X399305Y393703D01*
X399303Y393702D01*
X398795Y393703D01*
X398696Y394202D01*
X398298Y394798D01*
X397702Y395196D01*
X397000Y395335D01*
D02*
G37*
G36*
X370000Y386383D02*
X368995Y386251D01*
X368058Y385863D01*
X367254Y385246D01*
X366637Y384442D01*
X366249Y383505D01*
X366117Y382500D01*
X366249Y381495D01*
X366637Y380558D01*
X367254Y379754D01*
X368058Y379137D01*
X368995Y378749D01*
X370000Y378617D01*
X371005Y378749D01*
X371942Y379137D01*
X372746Y379754D01*
X373363Y380558D01*
X373751Y381495D01*
X373883Y382500D01*
X373751Y383505D01*
X373363Y384442D01*
X372746Y385246D01*
X371942Y385863D01*
X371005Y386251D01*
X370000Y386383D01*
D02*
G37*
G36*
X380000D02*
X378995Y386251D01*
X378058Y385863D01*
X377254Y385246D01*
X376637Y384442D01*
X376249Y383505D01*
X376117Y382500D01*
X376249Y381495D01*
X376637Y380558D01*
X377254Y379754D01*
X378058Y379137D01*
X378995Y378749D01*
X380000Y378617D01*
X381005Y378749D01*
X381942Y379137D01*
X382746Y379754D01*
X383363Y380558D01*
X383751Y381495D01*
X383883Y382500D01*
X383751Y383505D01*
X383363Y384442D01*
X382746Y385246D01*
X381942Y385863D01*
X381005Y386251D01*
X380000Y386383D01*
D02*
G37*
G36*
X393850Y386350D02*
X386150D01*
Y378650D01*
X393850D01*
Y386350D01*
D02*
G37*
G36*
X395500Y420835D02*
X394798Y420696D01*
X394202Y420298D01*
X393804Y419702D01*
X393665Y419000D01*
X393724Y418701D01*
X393299Y418276D01*
X393000Y418335D01*
X392298Y418196D01*
X391702Y417798D01*
X391304Y417202D01*
X391165Y416500D01*
X391304Y415798D01*
X391702Y415202D01*
X392298Y414804D01*
X393000Y414665D01*
X393702Y414804D01*
X394298Y415202D01*
X394696Y415798D01*
X394835Y416500D01*
X394776Y416799D01*
X395201Y417224D01*
X395500Y417165D01*
X396202Y417304D01*
X396798Y417702D01*
X397196Y418298D01*
X397335Y419000D01*
X397196Y419702D01*
X396798Y420298D01*
X396202Y420696D01*
X395500Y420835D01*
D02*
G37*
G36*
X351000Y455835D02*
X350298Y455696D01*
X349702Y455298D01*
X349304Y454702D01*
X349165Y454000D01*
X349304Y453298D01*
X349702Y452702D01*
X350298Y452304D01*
X351000Y452165D01*
X351702Y452304D01*
X352298Y452702D01*
X352696Y453298D01*
X352835Y454000D01*
X352696Y454702D01*
X352298Y455298D01*
X351702Y455696D01*
X351000Y455835D01*
D02*
G37*
G36*
X354000Y459335D02*
X353298Y459196D01*
X352702Y458798D01*
X352304Y458202D01*
X352165Y457500D01*
X352304Y456798D01*
X352702Y456202D01*
X353298Y455804D01*
X354000Y455665D01*
X354702Y455804D01*
X355298Y456202D01*
X355696Y456798D01*
X355835Y457500D01*
X355696Y458202D01*
X355298Y458798D01*
X354702Y459196D01*
X354000Y459335D01*
D02*
G37*
G36*
X358500Y460335D02*
X357798Y460196D01*
X357202Y459798D01*
X356804Y459202D01*
X356665Y458500D01*
X356804Y457798D01*
X357202Y457202D01*
X357798Y456804D01*
X358500Y456665D01*
X359202Y456804D01*
X359798Y457202D01*
X360196Y457798D01*
X360335Y458500D01*
X360196Y459202D01*
X359798Y459798D01*
X359202Y460196D01*
X358500Y460335D01*
D02*
G37*
G36*
X375000Y444099D02*
X374298Y443959D01*
X373702Y443562D01*
X373304Y442966D01*
X373165Y442264D01*
X373304Y441562D01*
X373702Y440966D01*
X374298Y440568D01*
X375000Y440428D01*
X375702Y440568D01*
X376298Y440966D01*
X376696Y441562D01*
X376835Y442264D01*
X376696Y442966D01*
X376298Y443562D01*
X375702Y443959D01*
X375000Y444099D01*
D02*
G37*
G36*
X409600Y444235D02*
X408898Y444096D01*
X408302Y443698D01*
X407904Y443102D01*
X407765Y442400D01*
X407904Y441698D01*
X408302Y441102D01*
X408898Y440704D01*
X409600Y440565D01*
X410302Y440704D01*
X410898Y441102D01*
X411296Y441698D01*
X411435Y442400D01*
X411296Y443102D01*
X410898Y443698D01*
X410302Y444096D01*
X409600Y444235D01*
D02*
G37*
G36*
X368000Y444335D02*
X367298Y444196D01*
X366702Y443798D01*
X366304Y443202D01*
X366165Y442500D01*
X366304Y441798D01*
X366702Y441202D01*
X367298Y440804D01*
X368000Y440665D01*
X368702Y440804D01*
X369298Y441202D01*
X369696Y441798D01*
X369835Y442500D01*
X369696Y443202D01*
X369298Y443798D01*
X368702Y444196D01*
X368000Y444335D01*
D02*
G37*
G36*
X375000Y461835D02*
X374298Y461696D01*
X373702Y461298D01*
X373304Y460702D01*
X373165Y460000D01*
X373304Y459298D01*
X373702Y458702D01*
X374298Y458304D01*
X375000Y458165D01*
X375702Y458304D01*
X376298Y458702D01*
X376696Y459298D01*
X376835Y460000D01*
X376696Y460702D01*
X376298Y461298D01*
X375702Y461696D01*
X375000Y461835D01*
D02*
G37*
G36*
X450000Y493148D02*
X448538Y492956D01*
X447176Y492392D01*
X446006Y491494D01*
X445108Y490324D01*
X444544Y488962D01*
X444352Y487500D01*
X444544Y486038D01*
X445108Y484676D01*
X446006Y483506D01*
X447176Y482608D01*
X448538Y482044D01*
X450000Y481852D01*
X451462Y482044D01*
X452824Y482608D01*
X453994Y483506D01*
X454892Y484676D01*
X455456Y486038D01*
X455648Y487500D01*
X455456Y488962D01*
X454892Y490324D01*
X453994Y491494D01*
X452824Y492392D01*
X451462Y492956D01*
X450000Y493148D01*
D02*
G37*
G36*
X387500Y487835D02*
X386798Y487696D01*
X386202Y487298D01*
X385804Y486702D01*
X385665Y486000D01*
X385804Y485298D01*
X386202Y484702D01*
X386798Y484304D01*
X387500Y484165D01*
X388202Y484304D01*
X388798Y484702D01*
X389196Y485298D01*
X389335Y486000D01*
X389196Y486702D01*
X388798Y487298D01*
X388202Y487696D01*
X387500Y487835D01*
D02*
G37*
G36*
X331350Y496350D02*
X323650D01*
Y488650D01*
X331350D01*
Y496350D01*
D02*
G37*
G36*
X378500Y489148D02*
X377038Y488956D01*
X375676Y488392D01*
X374506Y487494D01*
X373608Y486324D01*
X373044Y484962D01*
X372852Y483500D01*
X373044Y482038D01*
X373608Y480676D01*
X374506Y479506D01*
X375676Y478608D01*
X377038Y478044D01*
X378500Y477852D01*
X379962Y478044D01*
X381324Y478608D01*
X382494Y479506D01*
X383392Y480676D01*
X383956Y482038D01*
X384148Y483500D01*
X383956Y484962D01*
X383392Y486324D01*
X382494Y487494D01*
X381324Y488392D01*
X379962Y488956D01*
X378500Y489148D01*
D02*
G37*
G36*
X387000Y483335D02*
X386298Y483196D01*
X385702Y482798D01*
X385304Y482202D01*
X385165Y481500D01*
X385304Y480798D01*
X385702Y480202D01*
X386298Y479804D01*
X387000Y479665D01*
X387702Y479804D01*
X388298Y480202D01*
X388310Y480221D01*
X388467Y480245D01*
X388884Y480179D01*
X389202Y479702D01*
X389798Y479304D01*
X390500Y479165D01*
X391202Y479304D01*
X391798Y479702D01*
X392196Y480298D01*
X392335Y481000D01*
X392196Y481702D01*
X391798Y482298D01*
X391202Y482696D01*
X390500Y482835D01*
X389798Y482696D01*
X389202Y482298D01*
X389190Y482279D01*
X389033Y482255D01*
X388616Y482321D01*
X388298Y482798D01*
X387702Y483196D01*
X387000Y483335D01*
D02*
G37*
G36*
X407500Y493148D02*
X406038Y492956D01*
X404676Y492392D01*
X403506Y491494D01*
X402608Y490324D01*
X402044Y488962D01*
X401852Y487500D01*
X402044Y486038D01*
X402608Y484676D01*
X403506Y483506D01*
X404676Y482608D01*
X406038Y482044D01*
X407500Y481852D01*
X408962Y482044D01*
X410324Y482608D01*
X411494Y483506D01*
X412392Y484676D01*
X412956Y486038D01*
X413148Y487500D01*
X412956Y488962D01*
X412392Y490324D01*
X411494Y491494D01*
X410324Y492392D01*
X408962Y492956D01*
X407500Y493148D01*
D02*
G37*
G36*
X413701Y429536D02*
X412998Y429396D01*
X412403Y428998D01*
X412005Y428403D01*
X411866Y427701D01*
X412005Y426998D01*
X412403Y426403D01*
X412998Y426005D01*
X413701Y425866D01*
X414403Y426005D01*
X414998Y426403D01*
X415396Y426998D01*
X415536Y427701D01*
X415396Y428403D01*
X414998Y428998D01*
X414403Y429396D01*
X413701Y429536D01*
D02*
G37*
G36*
X450000Y433883D02*
X448995Y433751D01*
X448058Y433363D01*
X447254Y432746D01*
X446637Y431942D01*
X446249Y431005D01*
X446117Y430000D01*
X446249Y428995D01*
X446637Y428058D01*
X447254Y427254D01*
X448058Y426637D01*
X448995Y426249D01*
X450000Y426117D01*
X451005Y426249D01*
X451942Y426637D01*
X452746Y427254D01*
X453363Y428058D01*
X453751Y428995D01*
X453883Y430000D01*
X453751Y431005D01*
X453363Y431942D01*
X452746Y432746D01*
X451942Y433363D01*
X451005Y433751D01*
X450000Y433883D01*
D02*
G37*
G36*
X397500Y437835D02*
X396798Y437696D01*
X396202Y437298D01*
X395804Y436702D01*
X395665Y436000D01*
X395804Y435298D01*
X396202Y434702D01*
X396798Y434304D01*
X397500Y434165D01*
X398202Y434304D01*
X398377Y434421D01*
X398499Y434359D01*
X398782Y434091D01*
X398665Y433500D01*
X398804Y432798D01*
X399202Y432202D01*
X399798Y431804D01*
X400500Y431665D01*
X401202Y431804D01*
X401798Y432202D01*
X402196Y432798D01*
X402335Y433500D01*
X402196Y434202D01*
X401798Y434798D01*
X401202Y435196D01*
X400500Y435335D01*
X399798Y435196D01*
X399623Y435079D01*
X399501Y435141D01*
X399218Y435409D01*
X399335Y436000D01*
X399196Y436702D01*
X398798Y437298D01*
X398202Y437696D01*
X397500Y437835D01*
D02*
G37*
G36*
X373500Y438000D02*
X368000D01*
Y418500D01*
X369853D01*
X370005Y418000D01*
X369702Y417798D01*
X369304Y417202D01*
X369165Y416500D01*
X369304Y415798D01*
X369702Y415202D01*
X370298Y414804D01*
X371000Y414665D01*
X371702Y414804D01*
X372298Y415202D01*
X372696Y415798D01*
X372835Y416500D01*
X372696Y417202D01*
X372298Y417798D01*
X371995Y418000D01*
X372147Y418500D01*
X372500D01*
X376000Y422000D01*
X377843Y420157D01*
X379657D01*
X383500Y424000D01*
X373500Y434000D01*
Y438000D01*
D02*
G37*
G36*
X400500Y425335D02*
X399798Y425196D01*
X399202Y424798D01*
X398804Y424202D01*
X398665Y423500D01*
X398804Y422798D01*
X399202Y422202D01*
X399798Y421804D01*
X400500Y421665D01*
X401202Y421804D01*
X401798Y422202D01*
X402196Y422798D01*
X402335Y423500D01*
X402196Y424202D01*
X401798Y424798D01*
X401202Y425196D01*
X400500Y425335D01*
D02*
G37*
G36*
X330000Y434973D02*
X328713Y434804D01*
X327513Y434307D01*
X326483Y433517D01*
X325693Y432487D01*
X325196Y431287D01*
X325027Y430000D01*
X325196Y428713D01*
X325693Y427513D01*
X326483Y426483D01*
X327513Y425693D01*
X328713Y425196D01*
X330000Y425027D01*
X331287Y425196D01*
X332487Y425693D01*
X333517Y426483D01*
X334307Y427513D01*
X334804Y428713D01*
X334973Y430000D01*
X334804Y431287D01*
X334307Y432487D01*
X333517Y433517D01*
X332487Y434307D01*
X331287Y434804D01*
X330000Y434973D01*
D02*
G37*
G36*
X360000Y437835D02*
X359298Y437696D01*
X358702Y437298D01*
X358304Y436702D01*
X358165Y436000D01*
X358304Y435298D01*
X358702Y434702D01*
X359298Y434304D01*
X360000Y434165D01*
X360702Y434304D01*
X361298Y434702D01*
X361696Y435298D01*
X361835Y436000D01*
X361696Y436702D01*
X361298Y437298D01*
X360702Y437696D01*
X360000Y437835D01*
D02*
G37*
G36*
X402500Y439835D02*
X401798Y439696D01*
X401202Y439298D01*
X400804Y438702D01*
X400665Y438000D01*
X400804Y437298D01*
X401202Y436702D01*
X401798Y436304D01*
X402500Y436165D01*
X403202Y436304D01*
X403798Y436702D01*
X404196Y437298D01*
X404335Y438000D01*
X404196Y438702D01*
X403798Y439298D01*
X403202Y439696D01*
X402500Y439835D01*
D02*
G37*
G36*
X423500Y442335D02*
X422798Y442196D01*
X422202Y441798D01*
X421804Y441202D01*
X421665Y440500D01*
X421804Y439798D01*
X422202Y439202D01*
X422798Y438804D01*
X423500Y438665D01*
X424202Y438804D01*
X424798Y439202D01*
X425196Y439798D01*
X425335Y440500D01*
X425196Y441202D01*
X424798Y441798D01*
X424202Y442196D01*
X423500Y442335D01*
D02*
G37*
G36*
X360500Y443335D02*
X359798Y443196D01*
X359202Y442798D01*
X358804Y442202D01*
X358665Y441500D01*
X358804Y440798D01*
X359202Y440202D01*
X359798Y439804D01*
X360500Y439665D01*
X361202Y439804D01*
X361798Y440202D01*
X362196Y440798D01*
X362335Y441500D01*
X362196Y442202D01*
X361798Y442798D01*
X361202Y443196D01*
X360500Y443335D01*
D02*
G37*
G36*
X480000Y444973D02*
X478713Y444804D01*
X477513Y444307D01*
X476483Y443517D01*
X475693Y442487D01*
X475196Y441287D01*
X475027Y440000D01*
X475196Y438713D01*
X475693Y437513D01*
X476483Y436483D01*
X477513Y435693D01*
X478713Y435196D01*
X480000Y435027D01*
X481287Y435196D01*
X482487Y435693D01*
X483517Y436483D01*
X484307Y437513D01*
X484804Y438713D01*
X484973Y440000D01*
X484804Y441287D01*
X484307Y442487D01*
X483517Y443517D01*
X482487Y444307D01*
X481287Y444804D01*
X480000Y444973D01*
D02*
G37*
G36*
X416000Y439335D02*
X415298Y439196D01*
X414702Y438798D01*
X414304Y438202D01*
X414165Y437500D01*
X414304Y436798D01*
X414702Y436202D01*
X415298Y435804D01*
X416000Y435665D01*
X416702Y435804D01*
X417298Y436202D01*
X417696Y436798D01*
X417835Y437500D01*
X417696Y438202D01*
X417298Y438798D01*
X416702Y439196D01*
X416000Y439335D01*
D02*
G37*
G36*
X428000D02*
X427298Y439196D01*
X426702Y438798D01*
X426304Y438202D01*
X426165Y437500D01*
X426304Y436798D01*
X426702Y436202D01*
X427298Y435804D01*
X428000Y435665D01*
X428702Y435804D01*
X429298Y436202D01*
X429696Y436798D01*
X429835Y437500D01*
X429696Y438202D01*
X429298Y438798D01*
X428702Y439196D01*
X428000Y439335D01*
D02*
G37*
%LPD*%
D27*
X397000Y393000D02*
Y393500D01*
D28*
X881664Y508331D02*
X879998Y509997D01*
X876666D01*
X875000Y508331D01*
Y506665D01*
X876666Y504998D01*
X879998D01*
X881664Y503332D01*
Y501666D01*
X879998Y500000D01*
X876666D01*
X875000Y501666D01*
X884997Y500000D02*
X888329D01*
X886663D01*
Y506665D01*
X884997D01*
X896660Y496668D02*
X898326D01*
X899992Y498334D01*
Y506665D01*
X894993D01*
X893327Y504998D01*
Y501666D01*
X894993Y500000D01*
X899992D01*
X903324D02*
Y506665D01*
X908323D01*
X909989Y504998D01*
Y500000D01*
X914987Y506665D02*
X918319D01*
X919985Y504998D01*
Y500000D01*
X914987D01*
X913321Y501666D01*
X914987Y503332D01*
X919985D01*
X923318Y500000D02*
X926650D01*
X924984D01*
Y509997D01*
X923318D01*
X941645D02*
Y500000D01*
X948310D01*
X953308Y506665D02*
X956640D01*
X958306Y504998D01*
Y500000D01*
X953308D01*
X951642Y501666D01*
X953308Y503332D01*
X958306D01*
X961639Y506665D02*
Y501666D01*
X963305Y500000D01*
X968303D01*
Y498334D01*
X966637Y496668D01*
X964971D01*
X968303Y500000D02*
Y506665D01*
X976634Y500000D02*
X973302D01*
X971635Y501666D01*
Y504998D01*
X973302Y506665D01*
X976634D01*
X978300Y504998D01*
Y503332D01*
X971635D01*
X981632Y506665D02*
Y500000D01*
Y503332D01*
X983298Y504998D01*
X984964Y506665D01*
X986631D01*
X1001626Y500000D02*
X1004958D01*
X1003292D01*
Y509997D01*
X1001626Y508331D01*
D31*
X357500Y487500D02*
D03*
D32*
X320000Y420000D02*
D03*
Y440000D02*
D03*
X340000D02*
D03*
Y420000D02*
D03*
X470000Y390000D02*
D03*
Y410000D02*
D03*
X490000D02*
D03*
Y390000D02*
D03*
X470000Y430000D02*
D03*
Y450000D02*
D03*
X490000D02*
D03*
Y430000D02*
D03*
D34*
X460000Y420000D02*
D03*
Y430000D02*
D03*
D35*
X327500Y482500D02*
D03*
X440000Y420000D02*
D03*
Y430000D02*
D03*
D37*
X393681Y487500D02*
D03*
X391319D02*
D03*
X420800Y411300D02*
D03*
X414100Y444400D02*
D03*
X385500Y434500D02*
D03*
X392000Y439500D02*
D03*
X385500Y430000D02*
D03*
X433500Y480000D02*
D03*
X437500Y478000D02*
D03*
X441500Y481500D02*
D03*
X390000Y474500D02*
D03*
X386500Y477500D02*
D03*
X410000Y429000D02*
D03*
X405000Y423000D02*
D03*
X403000Y421000D02*
D03*
X405000Y390000D02*
D03*
X410000Y388500D02*
D03*
X397000Y393500D02*
D03*
X364000Y416500D02*
D03*
X423500Y429500D02*
D03*
X427000Y432500D02*
D03*
X417500Y429000D02*
D03*
X416000Y456000D02*
D03*
X420000Y453000D02*
D03*
X387500Y439500D02*
D03*
X367500Y405000D02*
D03*
X376500Y404500D02*
D03*
X379500Y408500D02*
D03*
X347000Y439500D02*
D03*
X349000Y445500D02*
D03*
X347500Y408500D02*
D03*
X349000Y414000D02*
D03*
X367500Y457000D02*
D03*
X365000Y448000D02*
D03*
X370000Y469000D02*
D03*
X374000Y466000D02*
D03*
X348000Y433000D02*
D03*
X353000Y445000D02*
D03*
X347000Y436000D02*
D03*
X402500Y412500D02*
D03*
Y402500D02*
D03*
X407500Y407500D02*
D03*
X397500D02*
D03*
X402500D02*
D03*
M02*
