M48
;Layer_Color=9474304
;FILE_FORMAT=2:5
INCH,LZ
;TYPE=PLATED
T1F00S00C0.01200
T2F00S00C0.04000
T3F00S00C0.05906
T4F00S00C0.06200
T5F00S00C0.06299
%
T01
X03425Y0405
X03475Y04085
X0349Y0414
X03605
X0364Y04165
X03675Y04135
X0371Y04165
X03675Y0405
X037Y0402
Y03945
Y0391
X03735Y03975
X0376Y04
X03765Y04045
X03795Y04085
X03875Y0411
X0389Y0403
X03975Y04075
X04025
Y04125
X0403Y0421
X0405Y0423
X04005Y04235
X03955Y0419
X0393Y04165
X04105Y0419
X0413892Y04175
X0416Y0414
X0417Y0411
X04208Y04113
X04159Y04071
X04165Y0401
X04137Y03993
Y03962
X041Y03885
X0405Y039
X0401Y0393
X0397Y03935
X04025Y04025
X04075Y04075
X041Y0429
X0413701Y0427701
X04175Y0429
X04235Y04295
X0427Y04325
X0428Y04375
X04235Y04405
X0416Y04375
X04141Y04444
X04096Y04424
X04025Y0438
X04005Y04335
X03975Y0436
X0392Y04395
X03875
X03855Y04345
Y043
X0375Y0442264
X0368Y04425
X0365Y0448
X03605Y04415
X036Y0436
X0347
Y04395
X0348Y0433
X0349Y04455
X0353Y0445
X0351Y0454
X0354Y04575
X03585Y04585
X03675Y0457
X0375Y046
X0374Y0466
X0416Y0456
X042Y0453
X03555Y042
X03615Y0409
X037Y0469
X03865Y04775
X0387Y04815
X03905Y0481
X039Y04745
X03875Y0486
X0391319Y04875
X0393681
X04335Y048
X04375Y0478
X04415Y04815
T02
X032Y03825
X033
X034
X035
X036
X037
X038
X039
X044Y042
X045
Y043
X044
X046
Y042
X03275Y04825
Y04925
T03
X033Y043
X048Y044
Y04
T04
X0405Y0382
X042Y0385
X04075Y04875
X03785Y04835
X03575Y04875
X045
T05
X032Y042
Y044
X034
Y042
X047Y041
Y039
X049
Y041
Y043
X047
Y045
X049
M30
