G04 Layer_Color=128*
%FSLAX25Y25*%
%MOIN*%
G70*
G01*
G75*
%ADD11R,0.03150X0.02756*%
%ADD13R,0.02756X0.03150*%
G04:AMPARAMS|DCode=19|XSize=27.56mil|YSize=31.5mil|CornerRadius=0mil|HoleSize=0mil|Usage=FLASHONLY|Rotation=135.000|XOffset=0mil|YOffset=0mil|HoleType=Round|Shape=Rectangle|*
%AMROTATEDRECTD19*
4,1,4,0.02088,0.00139,-0.00139,-0.02088,-0.02088,-0.00139,0.00139,0.02088,0.02088,0.00139,0.0*
%
%ADD19ROTATEDRECTD19*%

%ADD28C,0.02000*%
D11*
X408362Y426500D02*
D03*
X403638D02*
D03*
X404362Y417500D02*
D03*
X399638D02*
D03*
X419362Y406500D02*
D03*
X414638D02*
D03*
X396862Y403000D02*
D03*
X392138D02*
D03*
D13*
X400000Y400862D02*
D03*
Y396138D02*
D03*
D19*
X408330Y390830D02*
D03*
X411670Y394170D02*
D03*
D28*
X875000Y419997D02*
Y410000D01*
X879998D01*
X881664Y411666D01*
Y413332D01*
X879998Y414998D01*
X875000D01*
X879998D01*
X881664Y416665D01*
Y418331D01*
X879998Y419997D01*
X875000D01*
X886663Y410000D02*
X889995D01*
X891661Y411666D01*
Y414998D01*
X889995Y416665D01*
X886663D01*
X884997Y414998D01*
Y411666D01*
X886663Y410000D01*
X896660Y418331D02*
Y416665D01*
X894993D01*
X898326D01*
X896660D01*
Y411666D01*
X898326Y410000D01*
X904990Y418331D02*
Y416665D01*
X903324D01*
X906656D01*
X904990D01*
Y411666D01*
X906656Y410000D01*
X913321D02*
X916653D01*
X918319Y411666D01*
Y414998D01*
X916653Y416665D01*
X913321D01*
X911655Y414998D01*
Y411666D01*
X913321Y410000D01*
X921652D02*
Y416665D01*
X923318D01*
X924984Y414998D01*
Y410000D01*
Y414998D01*
X926650Y416665D01*
X928316Y414998D01*
Y410000D01*
X941645D02*
Y419997D01*
X946644D01*
X948310Y418331D01*
Y414998D01*
X946644Y413332D01*
X941645D01*
X953308Y416665D02*
X956640D01*
X958306Y414998D01*
Y410000D01*
X953308D01*
X951642Y411666D01*
X953308Y413332D01*
X958306D01*
X961639Y410000D02*
X966637D01*
X968303Y411666D01*
X966637Y413332D01*
X963305D01*
X961639Y414998D01*
X963305Y416665D01*
X968303D01*
X973302Y418331D02*
Y416665D01*
X971635D01*
X974968D01*
X973302D01*
Y411666D01*
X974968Y410000D01*
X984964D02*
X981632D01*
X979966Y411666D01*
Y414998D01*
X981632Y416665D01*
X984964D01*
X986631Y414998D01*
Y413332D01*
X979966D01*
M02*
