G04 Layer_Color=10092288*
%FSLAX25Y25*%
%MOIN*%
G70*
G01*
G75*
%ADD28C,0.02000*%
%ADD46R,0.03950X0.03556*%
%ADD48R,0.03556X0.03950*%
G04:AMPARAMS|DCode=54|XSize=35.56mil|YSize=39.5mil|CornerRadius=0mil|HoleSize=0mil|Usage=FLASHONLY|Rotation=135.000|XOffset=0mil|YOffset=0mil|HoleType=Round|Shape=Rectangle|*
%AMROTATEDRECTD54*
4,1,4,0.02654,0.00139,-0.00139,-0.02654,-0.02654,-0.00139,0.00139,0.02654,0.02654,0.00139,0.0*
%
%ADD54ROTATEDRECTD54*%

%ADD62C,0.10800*%
%ADD63C,0.11824*%
%ADD64C,0.09213*%
%ADD65R,0.07300X0.07300*%
%ADD66C,0.07300*%
%ADD67R,0.07300X0.07300*%
%ADD68C,0.03200*%
D28*
X875000Y455997D02*
Y446000D01*
X879998D01*
X881664Y447666D01*
Y449332D01*
X879998Y450998D01*
X875000D01*
X879998D01*
X881664Y452665D01*
Y454331D01*
X879998Y455997D01*
X875000D01*
X886663Y446000D02*
X889995D01*
X891661Y447666D01*
Y450998D01*
X889995Y452665D01*
X886663D01*
X884997Y450998D01*
Y447666D01*
X886663Y446000D01*
X896660Y454331D02*
Y452665D01*
X894993D01*
X898326D01*
X896660D01*
Y447666D01*
X898326Y446000D01*
X904990Y454331D02*
Y452665D01*
X903324D01*
X906656D01*
X904990D01*
Y447666D01*
X906656Y446000D01*
X913321D02*
X916653D01*
X918319Y447666D01*
Y450998D01*
X916653Y452665D01*
X913321D01*
X911655Y450998D01*
Y447666D01*
X913321Y446000D01*
X921652D02*
Y452665D01*
X923318D01*
X924984Y450998D01*
Y446000D01*
Y450998D01*
X926650Y452665D01*
X928316Y450998D01*
Y446000D01*
X948310Y454331D02*
X946644Y455997D01*
X943311D01*
X941645Y454331D01*
Y452665D01*
X943311Y450998D01*
X946644D01*
X948310Y449332D01*
Y447666D01*
X946644Y446000D01*
X943311D01*
X941645Y447666D01*
X953308Y446000D02*
X956640D01*
X958306Y447666D01*
Y450998D01*
X956640Y452665D01*
X953308D01*
X951642Y450998D01*
Y447666D01*
X953308Y446000D01*
X961639D02*
X964971D01*
X963305D01*
Y455997D01*
X961639D01*
X976634D02*
Y446000D01*
X971635D01*
X969969Y447666D01*
Y450998D01*
X971635Y452665D01*
X976634D01*
X984964Y446000D02*
X981632D01*
X979966Y447666D01*
Y450998D01*
X981632Y452665D01*
X984964D01*
X986631Y450998D01*
Y449332D01*
X979966D01*
X989963Y452665D02*
Y446000D01*
Y449332D01*
X991629Y450998D01*
X993295Y452665D01*
X994961D01*
D46*
X408362Y426500D02*
D03*
X403638D02*
D03*
X404362Y417500D02*
D03*
X399638D02*
D03*
X419362Y406500D02*
D03*
X414638D02*
D03*
X396862Y403000D02*
D03*
X392138D02*
D03*
D48*
X400000Y400862D02*
D03*
Y396138D02*
D03*
D54*
X408330Y390830D02*
D03*
X411670Y394170D02*
D03*
D62*
X450000Y487500D02*
D03*
X357500D02*
D03*
X378500Y483500D02*
D03*
X407500Y487500D02*
D03*
X420000Y385000D02*
D03*
X405000Y382000D02*
D03*
D63*
X320000Y420000D02*
D03*
Y440000D02*
D03*
X340000D02*
D03*
Y420000D02*
D03*
X470000Y390000D02*
D03*
Y410000D02*
D03*
X490000D02*
D03*
Y390000D02*
D03*
X470000Y430000D02*
D03*
Y450000D02*
D03*
X490000D02*
D03*
Y430000D02*
D03*
D64*
X330000D02*
D03*
X480000Y400000D02*
D03*
Y440000D02*
D03*
D65*
X390000Y382500D02*
D03*
X460000Y420000D02*
D03*
Y430000D02*
D03*
D66*
X380000Y382500D02*
D03*
X370000D02*
D03*
X360000D02*
D03*
X350000D02*
D03*
X340000D02*
D03*
X330000D02*
D03*
X320000D02*
D03*
X327500Y482500D02*
D03*
X440000Y420000D02*
D03*
X450000D02*
D03*
X440000Y430000D02*
D03*
X450000D02*
D03*
D67*
X327500Y492500D02*
D03*
D68*
X393681Y487500D02*
D03*
X391319D02*
D03*
M02*
