G04 Layer_Physical_Order=3*
G04 Layer_Color=16440176*
%FSLAX25Y25*%
%MOIN*%
G70*
G01*
G75*
%ADD27C,0.01000*%
%ADD28C,0.02000*%
%ADD31C,0.10000*%
%ADD37C,0.02400*%
G36*
X510000Y375000D02*
X312500D01*
Y500000D01*
X392569D01*
X392636Y499900D01*
Y489651D01*
X392649Y489619D01*
X392639Y489587D01*
X392743Y489394D01*
X392797Y489262D01*
X392467Y488898D01*
X392021Y489196D01*
X391319Y489335D01*
X390617Y489196D01*
X390021Y488798D01*
X389623Y488202D01*
X389484Y487500D01*
X389623Y486798D01*
X390021Y486202D01*
X390617Y485804D01*
X391319Y485665D01*
X392021Y485804D01*
X392467Y486102D01*
X392797Y485738D01*
X392743Y485606D01*
X392639Y485413D01*
X392649Y485381D01*
X392636Y485349D01*
Y442849D01*
X382200D01*
X381741Y442659D01*
X378831Y439749D01*
X366969D01*
X362359Y444359D01*
X361900Y444549D01*
X358241D01*
X358122Y444500D01*
X357993Y444500D01*
X357902Y444409D01*
X357782Y444359D01*
X357733Y444240D01*
X357641Y444148D01*
X357600Y444049D01*
X357600Y443919D01*
X357551Y443800D01*
Y433900D01*
X357741Y433441D01*
X358200Y433251D01*
X383390D01*
X383421Y433263D01*
X383454Y433254D01*
X383647Y433357D01*
X383849Y433441D01*
X384202Y433202D01*
X384798Y432804D01*
X385500Y432665D01*
X385864Y432737D01*
X386266Y432307D01*
X386254Y432198D01*
X386024Y431762D01*
X385642Y431807D01*
X385500Y431835D01*
X384798Y431696D01*
X384202Y431298D01*
X383804Y430702D01*
X383665Y430000D01*
X383693Y429858D01*
X383747Y429396D01*
X383545Y429313D01*
X383335Y429249D01*
X383319Y429219D01*
X383288Y429206D01*
X379731Y425649D01*
X355500D01*
X355041Y425459D01*
X350541Y420959D01*
X350351Y420500D01*
Y415864D01*
X349851Y415596D01*
X349702Y415696D01*
X349000Y415835D01*
X348298Y415696D01*
X347702Y415298D01*
X347304Y414702D01*
X347165Y414000D01*
X347304Y413298D01*
X347702Y412702D01*
X348298Y412304D01*
X349000Y412165D01*
X349702Y412304D01*
X349851Y412403D01*
X350351Y412136D01*
Y405500D01*
X350541Y405041D01*
X351000Y404851D01*
X365694D01*
X365804Y404298D01*
X366202Y403702D01*
X366798Y403304D01*
X367500Y403165D01*
X368091Y403282D01*
X368359Y402999D01*
X368421Y402877D01*
X368304Y402702D01*
X368165Y402000D01*
X368304Y401298D01*
X368702Y400702D01*
X369298Y400304D01*
X370000Y400165D01*
X370702Y400304D01*
X371298Y400702D01*
X371696Y401298D01*
X371835Y402000D01*
X371696Y402702D01*
X371298Y403298D01*
X370702Y403696D01*
X370000Y403835D01*
X369409Y403718D01*
X369141Y404001D01*
X369079Y404123D01*
X369196Y404298D01*
X369305Y404851D01*
X374377D01*
X374665Y404500D01*
X374804Y403798D01*
X375202Y403202D01*
X375798Y402804D01*
X376500Y402665D01*
X377202Y402804D01*
X377798Y403202D01*
X378196Y403798D01*
X378335Y404500D01*
X378623Y404851D01*
X379500D01*
X379959Y405041D01*
X380802Y405883D01*
X380871Y406049D01*
X380975Y406195D01*
X380963Y406272D01*
X380992Y406343D01*
X380923Y406509D01*
X380894Y406686D01*
X380800Y406838D01*
X381162Y407200D01*
X381314Y407106D01*
X381491Y407077D01*
X381657Y407008D01*
X381729Y407037D01*
X381804Y407025D01*
X381951Y407129D01*
X382117Y407198D01*
X385315Y410396D01*
X385852Y410226D01*
X386202Y409702D01*
X386798Y409304D01*
X387500Y409165D01*
X388202Y409304D01*
X388798Y409702D01*
X389196Y410298D01*
X389335Y411000D01*
X389196Y411702D01*
X388798Y412298D01*
X388274Y412648D01*
X388104Y413185D01*
X391969Y417051D01*
X391995Y417112D01*
X392050Y417149D01*
X392171Y417330D01*
X392351Y417450D01*
X392388Y417505D01*
X392449Y417531D01*
X393315Y418396D01*
X393852Y418226D01*
X394202Y417702D01*
X394798Y417304D01*
X395500Y417165D01*
X396202Y417304D01*
X396798Y417702D01*
X397196Y418298D01*
X397335Y419000D01*
X397196Y419702D01*
X396798Y420298D01*
X396273Y420648D01*
X396104Y421185D01*
X399769Y424851D01*
X403630D01*
X403781Y424351D01*
X403702Y424298D01*
X403304Y423702D01*
X403165Y423000D01*
X403000Y422835D01*
X402298Y422696D01*
X401702Y422298D01*
X401304Y421702D01*
X401165Y421000D01*
X401304Y420298D01*
X401702Y419702D01*
X402298Y419304D01*
X403000Y419165D01*
X403702Y419304D01*
X404298Y419702D01*
X404696Y420298D01*
X404835Y421000D01*
X405000Y421165D01*
X405702Y421304D01*
X406298Y421702D01*
X406696Y422298D01*
X406835Y423000D01*
X406696Y423702D01*
X406298Y424298D01*
X406219Y424351D01*
X406370Y424851D01*
X412975Y424851D01*
X413178Y424934D01*
X413387Y424998D01*
X413403Y425028D01*
X413435Y425041D01*
X413518Y425243D01*
X413622Y425436D01*
X413661Y425836D01*
X413701Y425866D01*
X414403Y426005D01*
X414998Y426403D01*
X415396Y426998D01*
X415536Y427701D01*
X415508Y427841D01*
X415979Y428036D01*
X416202Y427702D01*
X416798Y427304D01*
X417500Y427165D01*
X418202Y427304D01*
X418798Y427702D01*
X419196Y428298D01*
X419335Y429000D01*
X419196Y429702D01*
X418798Y430298D01*
X418202Y430696D01*
X417500Y430835D01*
X416798Y430696D01*
X416202Y430298D01*
X416149Y430219D01*
X415649Y430370D01*
X415649Y435869D01*
X415459Y436328D01*
X415000Y436518D01*
X414564D01*
X414129Y436605D01*
X413761Y436851D01*
X412306Y438306D01*
X409470Y441141D01*
X409295Y441214D01*
X409266Y441233D01*
X409259Y441244D01*
X408771Y441571D01*
X408516Y441951D01*
X408427Y442400D01*
X408516Y442849D01*
X408771Y443229D01*
X409151Y443484D01*
X409600Y443573D01*
X410049Y443484D01*
X410429Y443229D01*
X410756Y442741D01*
X410767Y442734D01*
X410786Y442705D01*
X410859Y442530D01*
X414079Y439310D01*
X414198Y439260D01*
X414290Y439169D01*
X414419D01*
X414538Y439120D01*
X414657Y439169D01*
X414786D01*
X415248Y439360D01*
X415340Y439452D01*
X415459Y439501D01*
X415509Y439620D01*
X415600Y439712D01*
Y439841D01*
X415649Y439960D01*
Y442281D01*
X415629Y442330D01*
X415641Y442382D01*
X415536Y442554D01*
X415459Y442740D01*
X415478Y443223D01*
X415796Y443698D01*
X415935Y444400D01*
X415796Y445102D01*
X415478Y445577D01*
X415459Y446060D01*
X415536Y446246D01*
X415641Y446418D01*
X415629Y446470D01*
X415649Y446519D01*
X415649Y453877D01*
X416000Y454165D01*
X416702Y454304D01*
X417298Y454702D01*
X417696Y455298D01*
X417835Y456000D01*
X417696Y456702D01*
X417298Y457298D01*
X416702Y457696D01*
X416000Y457835D01*
X415649Y458123D01*
X415649Y495000D01*
X415884Y495351D01*
X435731D01*
X443541Y487541D01*
X444000Y487351D01*
X444371D01*
X444544Y486038D01*
X445108Y484676D01*
X446006Y483506D01*
X447176Y482608D01*
X448538Y482044D01*
X450000Y481852D01*
X451462Y482044D01*
X452824Y482608D01*
X453994Y483506D01*
X454892Y484676D01*
X455456Y486038D01*
X455629Y487351D01*
X457347D01*
X457466Y487400D01*
X457595D01*
X457687Y487491D01*
X457806Y487541D01*
X457855Y487660D01*
X457947Y487751D01*
X458138Y488213D01*
Y488343D01*
X458187Y488462D01*
X458138Y488581D01*
Y488710D01*
X458047Y488802D01*
X457997Y488921D01*
X447380Y499538D01*
X447572Y500000D01*
X510000D01*
Y375000D01*
D02*
G37*
G36*
X415000Y457497D02*
X414702Y457298D01*
X414304Y456702D01*
X414165Y456000D01*
X414304Y455298D01*
X414702Y454702D01*
X415000Y454503D01*
X415000Y446519D01*
X414500Y446156D01*
X414100Y446235D01*
X413398Y446096D01*
X412802Y445698D01*
X412404Y445102D01*
X412265Y444400D01*
X412404Y443698D01*
X412802Y443102D01*
X413398Y442704D01*
X414100Y442565D01*
X414500Y442644D01*
X415000Y442281D01*
Y439960D01*
X414538Y439769D01*
X411318Y442989D01*
X411296Y443102D01*
X410898Y443698D01*
X410302Y444096D01*
X409600Y444235D01*
X408898Y444096D01*
X408302Y443698D01*
X407904Y443102D01*
X407765Y442400D01*
X407904Y441698D01*
X408302Y441102D01*
X408898Y440704D01*
X409011Y440682D01*
X413346Y436346D01*
X413876Y435993D01*
X414500Y435869D01*
X415000D01*
X415000Y429599D01*
X414500Y429331D01*
X414403Y429396D01*
X413701Y429536D01*
X412998Y429396D01*
X412403Y428998D01*
X412320Y428874D01*
X411945Y428971D01*
X411828Y429038D01*
X411696Y429702D01*
X411298Y430298D01*
X410702Y430696D01*
X410000Y430835D01*
X409298Y430696D01*
X408702Y430298D01*
X408304Y429702D01*
X408165Y429000D01*
X408304Y428298D01*
X408702Y427702D01*
X409298Y427304D01*
X410000Y427165D01*
X410702Y427304D01*
X411298Y427702D01*
X411381Y427826D01*
X411756Y427729D01*
X411873Y427663D01*
X412005Y426998D01*
X412403Y426403D01*
X412998Y426005D01*
X413025Y426000D01*
X412975Y425500D01*
X399500Y425500D01*
X394490Y420490D01*
X394202Y420298D01*
X394010Y420010D01*
X391990Y417990D01*
X391702Y417798D01*
X391510Y417510D01*
X386490Y412490D01*
X386202Y412298D01*
X386010Y412010D01*
X381657Y407657D01*
X381222Y407929D01*
X381335Y408500D01*
X381196Y409202D01*
X380798Y409798D01*
X380202Y410196D01*
X379500Y410335D01*
X378798Y410196D01*
X378202Y409798D01*
X377804Y409202D01*
X377665Y408500D01*
X377804Y407798D01*
X378202Y407202D01*
X378798Y406804D01*
X379500Y406665D01*
X380071Y406778D01*
X380343Y406343D01*
X379500Y405500D01*
X377997D01*
X377798Y405798D01*
X377202Y406196D01*
X376500Y406335D01*
X375798Y406196D01*
X375202Y405798D01*
X375003Y405500D01*
X369236D01*
X369196Y405702D01*
X368798Y406298D01*
X368202Y406696D01*
X367500Y406835D01*
X366798Y406696D01*
X366202Y406298D01*
X365804Y405702D01*
X365764Y405500D01*
X351000D01*
Y420500D01*
X355500Y425000D01*
X380000D01*
X383747Y428747D01*
X384202Y428702D01*
X384798Y428304D01*
X385500Y428165D01*
X386202Y428304D01*
X386798Y428702D01*
X387196Y429298D01*
X387335Y430000D01*
X387196Y430702D01*
X386798Y431298D01*
X386753Y431753D01*
X388251Y433251D01*
X396231D01*
X398741Y430741D01*
X399200Y430551D01*
X399659Y430741D01*
X399934Y431015D01*
X402665D01*
X403124Y431206D01*
X403314Y431665D01*
Y434435D01*
X403124Y434895D01*
X400649Y437369D01*
Y437369D01*
Y494149D01*
X401500Y495000D01*
X415000D01*
X415000Y457497D01*
D02*
G37*
G36*
X457538Y488462D02*
X457347Y488000D01*
X444000D01*
X436000Y496000D01*
X400000D01*
Y437100D01*
X402665Y434435D01*
Y431665D01*
X399665D01*
X399200Y431200D01*
X396500Y433900D01*
X387610D01*
X387293Y434286D01*
X387335Y434500D01*
X387196Y435202D01*
X386798Y435798D01*
X386202Y436196D01*
X385500Y436335D01*
X384798Y436196D01*
X384202Y435798D01*
X383804Y435202D01*
X383665Y434500D01*
X383707Y434286D01*
X383390Y433900D01*
X358200D01*
Y443800D01*
X358241Y443900D01*
X361900D01*
X366700Y439100D01*
X379100D01*
X382200Y442200D01*
X393286D01*
Y485349D01*
X393672Y485667D01*
X393681Y485665D01*
X394383Y485804D01*
X394979Y486202D01*
X395377Y486798D01*
X395516Y487500D01*
X395377Y488202D01*
X394979Y488798D01*
X394383Y489196D01*
X393681Y489335D01*
X393672Y489333D01*
X393286Y489651D01*
Y499900D01*
X399965D01*
X399965Y499900D01*
X446100Y499900D01*
X457538Y488462D01*
D02*
G37*
%LPC*%
G36*
X470000Y416141D02*
X468802Y416023D01*
X467650Y415674D01*
X466588Y415106D01*
X465657Y414343D01*
X464894Y413412D01*
X464326Y412350D01*
X463977Y411198D01*
X463859Y410000D01*
X463977Y408802D01*
X464326Y407650D01*
X464894Y406588D01*
X465657Y405657D01*
X466588Y404894D01*
X467650Y404326D01*
X468802Y403977D01*
X470000Y403859D01*
X471198Y403977D01*
X472350Y404326D01*
X473412Y404894D01*
X474343Y405657D01*
X475106Y406588D01*
X475674Y407650D01*
X476023Y408802D01*
X476141Y410000D01*
X476023Y411198D01*
X475674Y412350D01*
X475106Y413412D01*
X474343Y414343D01*
X473412Y415106D01*
X472350Y415674D01*
X471198Y416023D01*
X470000Y416141D01*
D02*
G37*
G36*
X490000D02*
X488802Y416023D01*
X487650Y415674D01*
X486588Y415106D01*
X485657Y414343D01*
X484894Y413412D01*
X484326Y412350D01*
X483977Y411198D01*
X483859Y410000D01*
X483977Y408802D01*
X484326Y407650D01*
X484894Y406588D01*
X485657Y405657D01*
X486588Y404894D01*
X487650Y404326D01*
X488802Y403977D01*
X490000Y403859D01*
X491198Y403977D01*
X492350Y404326D01*
X493412Y404894D01*
X494343Y405657D01*
X495106Y406588D01*
X495674Y407650D01*
X496023Y408802D01*
X496141Y410000D01*
X496023Y411198D01*
X495674Y412350D01*
X495106Y413412D01*
X494343Y414343D01*
X493412Y415106D01*
X492350Y415674D01*
X491198Y416023D01*
X490000Y416141D01*
D02*
G37*
G36*
X397500Y409335D02*
X396798Y409196D01*
X396202Y408798D01*
X395804Y408202D01*
X395665Y407500D01*
X395804Y406798D01*
X396202Y406202D01*
X396798Y405804D01*
X397500Y405665D01*
X398202Y405804D01*
X398798Y406202D01*
X399196Y406798D01*
X399335Y407500D01*
X399196Y408202D01*
X398798Y408798D01*
X398202Y409196D01*
X397500Y409335D01*
D02*
G37*
G36*
X416500Y402835D02*
X415798Y402696D01*
X415202Y402298D01*
X414804Y401702D01*
X414739Y401372D01*
X414423Y401019D01*
X414201Y401036D01*
X413700Y401135D01*
X412998Y400996D01*
X412402Y400598D01*
X412004Y400002D01*
X411865Y399300D01*
X412004Y398598D01*
X412402Y398002D01*
X412998Y397604D01*
X413700Y397465D01*
X414402Y397604D01*
X414998Y398002D01*
X415396Y398598D01*
X415461Y398928D01*
X415777Y399281D01*
X415999Y399264D01*
X416500Y399165D01*
X417202Y399304D01*
X417798Y399702D01*
X418196Y400298D01*
X418335Y401000D01*
X418196Y401702D01*
X417798Y402298D01*
X417202Y402696D01*
X416500Y402835D01*
D02*
G37*
G36*
X480000Y404973D02*
X478713Y404804D01*
X477513Y404307D01*
X476483Y403517D01*
X475693Y402487D01*
X475196Y401287D01*
X475027Y400000D01*
X475196Y398713D01*
X475693Y397513D01*
X476483Y396483D01*
X477513Y395693D01*
X478713Y395196D01*
X480000Y395027D01*
X481287Y395196D01*
X482487Y395693D01*
X483517Y396483D01*
X484307Y397513D01*
X484804Y398713D01*
X484973Y400000D01*
X484804Y401287D01*
X484307Y402487D01*
X483517Y403517D01*
X482487Y404307D01*
X481287Y404804D01*
X480000Y404973D01*
D02*
G37*
G36*
X373500Y399335D02*
X372798Y399196D01*
X372202Y398798D01*
X371804Y398202D01*
X371665Y397500D01*
X371804Y396798D01*
X372202Y396202D01*
X372798Y395804D01*
X373500Y395665D01*
X374202Y395804D01*
X374798Y396202D01*
X375196Y396798D01*
X375335Y397500D01*
X375196Y398202D01*
X374798Y398798D01*
X374202Y399196D01*
X373500Y399335D01*
D02*
G37*
G36*
X402500Y404335D02*
X401798Y404196D01*
X401202Y403798D01*
X400804Y403202D01*
X400665Y402500D01*
X400804Y401798D01*
X401202Y401202D01*
X401798Y400804D01*
X402500Y400665D01*
X403202Y400804D01*
X403798Y401202D01*
X404196Y401798D01*
X404335Y402500D01*
X404196Y403202D01*
X403798Y403798D01*
X403202Y404196D01*
X402500Y404335D01*
D02*
G37*
G36*
X320000Y426141D02*
X318802Y426023D01*
X317650Y425674D01*
X316588Y425106D01*
X315657Y424343D01*
X314894Y423412D01*
X314326Y422350D01*
X313977Y421198D01*
X313859Y420000D01*
X313977Y418802D01*
X314326Y417650D01*
X314894Y416588D01*
X315657Y415657D01*
X316588Y414894D01*
X317650Y414326D01*
X318802Y413977D01*
X320000Y413859D01*
X321198Y413977D01*
X322350Y414326D01*
X323412Y414894D01*
X324343Y415657D01*
X325106Y416588D01*
X325674Y417650D01*
X326023Y418802D01*
X326141Y420000D01*
X326023Y421198D01*
X325674Y422350D01*
X325106Y423412D01*
X324343Y424343D01*
X323412Y425106D01*
X322350Y425674D01*
X321198Y426023D01*
X320000Y426141D01*
D02*
G37*
G36*
X402500Y414335D02*
X401798Y414196D01*
X401202Y413798D01*
X400804Y413202D01*
X400665Y412500D01*
X400804Y411798D01*
X401202Y411202D01*
X401798Y410804D01*
X402500Y410665D01*
X403202Y410804D01*
X403798Y411202D01*
X404196Y411798D01*
X404335Y412500D01*
X404196Y413202D01*
X403798Y413798D01*
X403202Y414196D01*
X402500Y414335D01*
D02*
G37*
G36*
X340000Y426141D02*
X338802Y426023D01*
X337650Y425674D01*
X336588Y425106D01*
X335657Y424343D01*
X334894Y423412D01*
X334326Y422350D01*
X333977Y421198D01*
X333859Y420000D01*
X333977Y418802D01*
X334326Y417650D01*
X334894Y416588D01*
X335657Y415657D01*
X336588Y414894D01*
X337650Y414326D01*
X338802Y413977D01*
X340000Y413859D01*
X341198Y413977D01*
X342350Y414326D01*
X343412Y414894D01*
X344343Y415657D01*
X345106Y416588D01*
X345674Y417650D01*
X346023Y418802D01*
X346141Y420000D01*
X346023Y421198D01*
X345674Y422350D01*
X345106Y423412D01*
X344343Y424343D01*
X343412Y425106D01*
X342350Y425674D01*
X341198Y426023D01*
X340000Y426141D01*
D02*
G37*
G36*
X407500Y409335D02*
X406798Y409196D01*
X406202Y408798D01*
X405804Y408202D01*
X405665Y407500D01*
X405804Y406798D01*
X406202Y406202D01*
X406798Y405804D01*
X407500Y405665D01*
X408202Y405804D01*
X408798Y406202D01*
X409196Y406798D01*
X409335Y407500D01*
X409196Y408202D01*
X408798Y408798D01*
X408202Y409196D01*
X407500Y409335D01*
D02*
G37*
G36*
X402500D02*
X401798Y409196D01*
X401202Y408798D01*
X400804Y408202D01*
X400665Y407500D01*
X400804Y406798D01*
X401202Y406202D01*
X401798Y405804D01*
X402500Y405665D01*
X403202Y405804D01*
X403798Y406202D01*
X404196Y406798D01*
X404335Y407500D01*
X404196Y408202D01*
X403798Y408798D01*
X403202Y409196D01*
X402500Y409335D01*
D02*
G37*
G36*
X410500Y420835D02*
X409798Y420696D01*
X409202Y420298D01*
X408804Y419702D01*
X408665Y419000D01*
X408804Y418298D01*
X409202Y417702D01*
X409798Y417304D01*
X410500Y417165D01*
X411202Y417304D01*
X411575Y417554D01*
X411647Y417546D01*
X412094Y417314D01*
X412196Y416798D01*
X412594Y416202D01*
X413190Y415804D01*
X413892Y415665D01*
X414594Y415804D01*
X414824Y415379D01*
X414702Y415298D01*
X414304Y414702D01*
X414165Y414000D01*
X414304Y413298D01*
X414702Y412702D01*
X415243Y412341D01*
X415381Y411817D01*
X415304Y411702D01*
X415165Y411000D01*
X415304Y410298D01*
X415702Y409702D01*
X416298Y409304D01*
X417000Y409165D01*
X417702Y409304D01*
X418298Y409702D01*
X418696Y410298D01*
X418697Y410307D01*
X419228Y410413D01*
X419502Y410002D01*
X420098Y409604D01*
X420800Y409465D01*
X421502Y409604D01*
X422098Y410002D01*
X422496Y410598D01*
X422635Y411300D01*
X422496Y412002D01*
X422098Y412598D01*
X421502Y412996D01*
X420800Y413135D01*
X420098Y412996D01*
X419502Y412598D01*
X419104Y412002D01*
X419103Y411993D01*
X418572Y411888D01*
X418298Y412298D01*
X417757Y412659D01*
X417619Y413183D01*
X417696Y413298D01*
X417835Y414000D01*
X417696Y414702D01*
X417298Y415298D01*
X416702Y415696D01*
X416000Y415835D01*
X415298Y415696D01*
X415068Y416121D01*
X415190Y416202D01*
X415588Y416798D01*
X415727Y417500D01*
X415588Y418202D01*
X415190Y418798D01*
X414594Y419196D01*
X413892Y419335D01*
X413190Y419196D01*
X412817Y418947D01*
X412745Y418954D01*
X412298Y419186D01*
X412196Y419702D01*
X411798Y420298D01*
X411202Y420696D01*
X410500Y420835D01*
D02*
G37*
G36*
X347500Y410335D02*
X346798Y410196D01*
X346202Y409798D01*
X345804Y409202D01*
X345665Y408500D01*
X345804Y407798D01*
X346202Y407202D01*
X346798Y406804D01*
X347500Y406665D01*
X348202Y406804D01*
X348798Y407202D01*
X349196Y407798D01*
X349335Y408500D01*
X349196Y409202D01*
X348798Y409798D01*
X348202Y410196D01*
X347500Y410335D01*
D02*
G37*
G36*
X397000Y395335D02*
X396298Y395196D01*
X395702Y394798D01*
X395304Y394202D01*
X395165Y393500D01*
X395304Y392798D01*
X395702Y392202D01*
X396298Y391804D01*
X397000Y391665D01*
X397702Y391804D01*
X398298Y392202D01*
X398696Y392798D01*
X398835Y393500D01*
X398696Y394202D01*
X398298Y394798D01*
X397702Y395196D01*
X397000Y395335D01*
D02*
G37*
G36*
X350000Y386383D02*
X348995Y386251D01*
X348058Y385863D01*
X347254Y385246D01*
X346637Y384442D01*
X346249Y383505D01*
X346117Y382500D01*
X346249Y381495D01*
X346637Y380558D01*
X347254Y379754D01*
X348058Y379137D01*
X348995Y378749D01*
X350000Y378617D01*
X351005Y378749D01*
X351942Y379137D01*
X352746Y379754D01*
X353363Y380558D01*
X353751Y381495D01*
X353883Y382500D01*
X353751Y383505D01*
X353363Y384442D01*
X352746Y385246D01*
X351942Y385863D01*
X351005Y386251D01*
X350000Y386383D01*
D02*
G37*
G36*
X360000D02*
X358995Y386251D01*
X358058Y385863D01*
X357254Y385246D01*
X356637Y384442D01*
X356249Y383505D01*
X356117Y382500D01*
X356249Y381495D01*
X356637Y380558D01*
X357254Y379754D01*
X358058Y379137D01*
X358995Y378749D01*
X360000Y378617D01*
X361005Y378749D01*
X361942Y379137D01*
X362746Y379754D01*
X363363Y380558D01*
X363751Y381495D01*
X363883Y382500D01*
X363751Y383505D01*
X363363Y384442D01*
X362746Y385246D01*
X361942Y385863D01*
X361005Y386251D01*
X360000Y386383D01*
D02*
G37*
G36*
X370000D02*
X368995Y386251D01*
X368058Y385863D01*
X367254Y385246D01*
X366637Y384442D01*
X366249Y383505D01*
X366117Y382500D01*
X366249Y381495D01*
X366637Y380558D01*
X367254Y379754D01*
X368058Y379137D01*
X368995Y378749D01*
X370000Y378617D01*
X371005Y378749D01*
X371942Y379137D01*
X372746Y379754D01*
X373363Y380558D01*
X373751Y381495D01*
X373883Y382500D01*
X373751Y383505D01*
X373363Y384442D01*
X372746Y385246D01*
X371942Y385863D01*
X371005Y386251D01*
X370000Y386383D01*
D02*
G37*
G36*
X340000D02*
X338995Y386251D01*
X338058Y385863D01*
X337254Y385246D01*
X336637Y384442D01*
X336249Y383505D01*
X336117Y382500D01*
X336249Y381495D01*
X336637Y380558D01*
X337254Y379754D01*
X338058Y379137D01*
X338995Y378749D01*
X340000Y378617D01*
X341005Y378749D01*
X341942Y379137D01*
X342746Y379754D01*
X343363Y380558D01*
X343751Y381495D01*
X343883Y382500D01*
X343751Y383505D01*
X343363Y384442D01*
X342746Y385246D01*
X341942Y385863D01*
X341005Y386251D01*
X340000Y386383D01*
D02*
G37*
G36*
X405000Y387648D02*
X403538Y387456D01*
X402176Y386892D01*
X401006Y385994D01*
X400108Y384824D01*
X399544Y383462D01*
X399352Y382000D01*
X399544Y380538D01*
X400108Y379176D01*
X401006Y378006D01*
X402176Y377108D01*
X403538Y376544D01*
X405000Y376352D01*
X406462Y376544D01*
X407824Y377108D01*
X408994Y378006D01*
X409892Y379176D01*
X410456Y380538D01*
X410648Y382000D01*
X410456Y383462D01*
X409892Y384824D01*
X408994Y385994D01*
X407824Y386892D01*
X406462Y387456D01*
X405000Y387648D01*
D02*
G37*
G36*
X320000Y386383D02*
X318995Y386251D01*
X318058Y385863D01*
X317254Y385246D01*
X316637Y384442D01*
X316249Y383505D01*
X316117Y382500D01*
X316249Y381495D01*
X316637Y380558D01*
X317254Y379754D01*
X318058Y379137D01*
X318995Y378749D01*
X320000Y378617D01*
X321005Y378749D01*
X321942Y379137D01*
X322746Y379754D01*
X323363Y380558D01*
X323751Y381495D01*
X323883Y382500D01*
X323751Y383505D01*
X323363Y384442D01*
X322746Y385246D01*
X321942Y385863D01*
X321005Y386251D01*
X320000Y386383D01*
D02*
G37*
G36*
X330000D02*
X328995Y386251D01*
X328058Y385863D01*
X327254Y385246D01*
X326637Y384442D01*
X326249Y383505D01*
X326117Y382500D01*
X326249Y381495D01*
X326637Y380558D01*
X327254Y379754D01*
X328058Y379137D01*
X328995Y378749D01*
X330000Y378617D01*
X331005Y378749D01*
X331942Y379137D01*
X332746Y379754D01*
X333363Y380558D01*
X333751Y381495D01*
X333883Y382500D01*
X333751Y383505D01*
X333363Y384442D01*
X332746Y385246D01*
X331942Y385863D01*
X331005Y386251D01*
X330000Y386383D01*
D02*
G37*
G36*
X380000D02*
X378995Y386251D01*
X378058Y385863D01*
X377254Y385246D01*
X376637Y384442D01*
X376249Y383505D01*
X376117Y382500D01*
X376249Y381495D01*
X376637Y380558D01*
X377254Y379754D01*
X378058Y379137D01*
X378995Y378749D01*
X380000Y378617D01*
X381005Y378749D01*
X381942Y379137D01*
X382746Y379754D01*
X383363Y380558D01*
X383751Y381495D01*
X383883Y382500D01*
X383751Y383505D01*
X383363Y384442D01*
X382746Y385246D01*
X381942Y385863D01*
X381005Y386251D01*
X380000Y386383D01*
D02*
G37*
G36*
X410000Y390335D02*
X409298Y390196D01*
X408702Y389798D01*
X408304Y389202D01*
X408165Y388500D01*
X408304Y387798D01*
X408702Y387202D01*
X409298Y386804D01*
X410000Y386665D01*
X410702Y386804D01*
X411298Y387202D01*
X411696Y387798D01*
X411835Y388500D01*
X411696Y389202D01*
X411298Y389798D01*
X410702Y390196D01*
X410000Y390335D01*
D02*
G37*
G36*
X405000Y391835D02*
X404298Y391696D01*
X403702Y391298D01*
X403304Y390702D01*
X403165Y390000D01*
X403304Y389298D01*
X403702Y388702D01*
X404298Y388304D01*
X405000Y388165D01*
X405702Y388304D01*
X406298Y388702D01*
X406696Y389298D01*
X406835Y390000D01*
X406696Y390702D01*
X406298Y391298D01*
X405702Y391696D01*
X405000Y391835D01*
D02*
G37*
G36*
X370000Y396335D02*
X369298Y396196D01*
X368702Y395798D01*
X368304Y395202D01*
X368165Y394500D01*
X368304Y393798D01*
X368702Y393202D01*
X368929Y393051D01*
Y392449D01*
X368702Y392298D01*
X368304Y391702D01*
X368165Y391000D01*
X368304Y390298D01*
X368702Y389702D01*
X369298Y389304D01*
X370000Y389165D01*
X370702Y389304D01*
X371298Y389702D01*
X371696Y390298D01*
X371835Y391000D01*
X371696Y391702D01*
X371298Y392298D01*
X371071Y392449D01*
Y393051D01*
X371298Y393202D01*
X371696Y393798D01*
X371835Y394500D01*
X371696Y395202D01*
X371298Y395798D01*
X370702Y396196D01*
X370000Y396335D01*
D02*
G37*
G36*
X490000Y396141D02*
X488802Y396023D01*
X487650Y395674D01*
X486588Y395106D01*
X485657Y394343D01*
X484894Y393412D01*
X484326Y392350D01*
X483977Y391198D01*
X483859Y390000D01*
X483977Y388802D01*
X484326Y387650D01*
X484894Y386588D01*
X485657Y385657D01*
X486588Y384894D01*
X487650Y384326D01*
X488802Y383977D01*
X490000Y383859D01*
X491198Y383977D01*
X492350Y384326D01*
X493412Y384894D01*
X494343Y385657D01*
X495106Y386588D01*
X495674Y387650D01*
X496023Y388802D01*
X496141Y390000D01*
X496023Y391198D01*
X495674Y392350D01*
X495106Y393412D01*
X494343Y394343D01*
X493412Y395106D01*
X492350Y395674D01*
X491198Y396023D01*
X490000Y396141D01*
D02*
G37*
G36*
X393850Y386350D02*
X386150D01*
Y378650D01*
X393850D01*
Y386350D01*
D02*
G37*
G36*
X420000Y390648D02*
X418538Y390456D01*
X417176Y389892D01*
X416006Y388994D01*
X415108Y387824D01*
X414544Y386462D01*
X414352Y385000D01*
X414544Y383538D01*
X415108Y382176D01*
X416006Y381006D01*
X417176Y380108D01*
X418538Y379544D01*
X420000Y379352D01*
X421462Y379544D01*
X422824Y380108D01*
X423994Y381006D01*
X424892Y382176D01*
X425456Y383538D01*
X425648Y385000D01*
X425456Y386462D01*
X424892Y387824D01*
X423994Y388994D01*
X422824Y389892D01*
X421462Y390456D01*
X420000Y390648D01*
D02*
G37*
G36*
X470000Y396141D02*
X468802Y396023D01*
X467650Y395674D01*
X466588Y395106D01*
X465657Y394343D01*
X464894Y393412D01*
X464326Y392350D01*
X463977Y391198D01*
X463859Y390000D01*
X463977Y388802D01*
X464326Y387650D01*
X464894Y386588D01*
X465657Y385657D01*
X466588Y384894D01*
X467650Y384326D01*
X468802Y383977D01*
X470000Y383859D01*
X471198Y383977D01*
X472350Y384326D01*
X473412Y384894D01*
X474343Y385657D01*
X475106Y386588D01*
X475674Y387650D01*
X476023Y388802D01*
X476141Y390000D01*
X476023Y391198D01*
X475674Y392350D01*
X475106Y393412D01*
X474343Y394343D01*
X473412Y395106D01*
X472350Y395674D01*
X471198Y396023D01*
X470000Y396141D01*
D02*
G37*
G36*
X440000Y423883D02*
X438995Y423751D01*
X438058Y423363D01*
X437254Y422746D01*
X436637Y421942D01*
X436249Y421005D01*
X436117Y420000D01*
X436249Y418995D01*
X436637Y418058D01*
X437254Y417254D01*
X438058Y416637D01*
X438995Y416249D01*
X440000Y416117D01*
X441005Y416249D01*
X441942Y416637D01*
X442746Y417254D01*
X443363Y418058D01*
X443751Y418995D01*
X443883Y420000D01*
X443751Y421005D01*
X443363Y421942D01*
X442746Y422746D01*
X441942Y423363D01*
X441005Y423751D01*
X440000Y423883D01*
D02*
G37*
G36*
X375000Y461835D02*
X374298Y461696D01*
X373702Y461298D01*
X373304Y460702D01*
X373165Y460000D01*
X373304Y459298D01*
X373702Y458702D01*
X374298Y458304D01*
X375000Y458165D01*
X375702Y458304D01*
X376298Y458702D01*
X376696Y459298D01*
X376835Y460000D01*
X376696Y460702D01*
X376298Y461298D01*
X375702Y461696D01*
X375000Y461835D01*
D02*
G37*
G36*
X374000Y467835D02*
X373298Y467696D01*
X372702Y467298D01*
X372304Y466702D01*
X372165Y466000D01*
X372304Y465298D01*
X372702Y464702D01*
X373298Y464304D01*
X374000Y464165D01*
X374702Y464304D01*
X375298Y464702D01*
X375696Y465298D01*
X375835Y466000D01*
X375696Y466702D01*
X375298Y467298D01*
X374702Y467696D01*
X374000Y467835D01*
D02*
G37*
G36*
X370000Y470835D02*
X369298Y470696D01*
X368702Y470298D01*
X368304Y469702D01*
X368165Y469000D01*
X368304Y468298D01*
X368702Y467702D01*
X369298Y467304D01*
X370000Y467165D01*
X370702Y467304D01*
X371298Y467702D01*
X371696Y468298D01*
X371835Y469000D01*
X371696Y469702D01*
X371298Y470298D01*
X370702Y470696D01*
X370000Y470835D01*
D02*
G37*
G36*
X367500Y458835D02*
X366798Y458696D01*
X366202Y458298D01*
X365804Y457702D01*
X365665Y457000D01*
X365804Y456298D01*
X366202Y455702D01*
X366798Y455304D01*
X367500Y455165D01*
X368202Y455304D01*
X368798Y455702D01*
X369196Y456298D01*
X369335Y457000D01*
X369196Y457702D01*
X368798Y458298D01*
X368202Y458696D01*
X367500Y458835D01*
D02*
G37*
G36*
X490000Y456141D02*
X488802Y456023D01*
X487650Y455674D01*
X486588Y455106D01*
X485657Y454343D01*
X484894Y453412D01*
X484326Y452350D01*
X483977Y451198D01*
X483859Y450000D01*
X483977Y448802D01*
X484326Y447650D01*
X484894Y446588D01*
X485657Y445657D01*
X486588Y444894D01*
X487650Y444326D01*
X488802Y443977D01*
X490000Y443859D01*
X491198Y443977D01*
X492350Y444326D01*
X493412Y444894D01*
X494343Y445657D01*
X495106Y446588D01*
X495674Y447650D01*
X496023Y448802D01*
X496141Y450000D01*
X496023Y451198D01*
X495674Y452350D01*
X495106Y453412D01*
X494343Y454343D01*
X493412Y455106D01*
X492350Y455674D01*
X491198Y456023D01*
X490000Y456141D01*
D02*
G37*
G36*
X365000Y449835D02*
X364298Y449696D01*
X363702Y449298D01*
X363304Y448702D01*
X363165Y448000D01*
X363304Y447298D01*
X363702Y446702D01*
X364298Y446304D01*
X365000Y446165D01*
X365702Y446304D01*
X366298Y446702D01*
X366696Y447298D01*
X366835Y448000D01*
X366696Y448702D01*
X366298Y449298D01*
X365702Y449696D01*
X365000Y449835D01*
D02*
G37*
G36*
X420000Y454835D02*
X419298Y454696D01*
X418702Y454298D01*
X418304Y453702D01*
X418165Y453000D01*
X418304Y452298D01*
X418702Y451702D01*
X419298Y451304D01*
X420000Y451165D01*
X420702Y451304D01*
X421298Y451702D01*
X421696Y452298D01*
X421835Y453000D01*
X421696Y453702D01*
X421298Y454298D01*
X420702Y454696D01*
X420000Y454835D01*
D02*
G37*
G36*
X390000Y476335D02*
X389298Y476196D01*
X388702Y475798D01*
X388304Y475202D01*
X388165Y474500D01*
X388304Y473798D01*
X388702Y473202D01*
X389298Y472804D01*
X390000Y472665D01*
X390702Y472804D01*
X391298Y473202D01*
X391696Y473798D01*
X391835Y474500D01*
X391696Y475202D01*
X391298Y475798D01*
X390702Y476196D01*
X390000Y476335D01*
D02*
G37*
G36*
X441500Y483335D02*
X440798Y483196D01*
X440202Y482798D01*
X439804Y482202D01*
X439665Y481500D01*
X439804Y480798D01*
X440202Y480202D01*
X440798Y479804D01*
X441500Y479665D01*
X442202Y479804D01*
X442798Y480202D01*
X443196Y480798D01*
X443335Y481500D01*
X443196Y482202D01*
X442798Y482798D01*
X442202Y483196D01*
X441500Y483335D01*
D02*
G37*
G36*
X357500Y493148D02*
X356038Y492956D01*
X354676Y492392D01*
X353506Y491494D01*
X352608Y490324D01*
X352044Y488962D01*
X351852Y487500D01*
X352044Y486038D01*
X352608Y484676D01*
X353506Y483506D01*
X354676Y482608D01*
X356038Y482044D01*
X357500Y481852D01*
X358962Y482044D01*
X360324Y482608D01*
X361494Y483506D01*
X362392Y484676D01*
X362956Y486038D01*
X363148Y487500D01*
X362956Y488962D01*
X362392Y490324D01*
X361494Y491494D01*
X360324Y492392D01*
X358962Y492956D01*
X357500Y493148D01*
D02*
G37*
G36*
X331350Y496350D02*
X323650D01*
Y488650D01*
X331350D01*
Y496350D01*
D02*
G37*
G36*
X327500Y486383D02*
X326495Y486251D01*
X325558Y485863D01*
X324754Y485246D01*
X324137Y484442D01*
X323749Y483505D01*
X323617Y482500D01*
X323749Y481495D01*
X324137Y480558D01*
X324754Y479754D01*
X325558Y479137D01*
X326495Y478749D01*
X327500Y478617D01*
X328505Y478749D01*
X329442Y479137D01*
X330246Y479754D01*
X330863Y480558D01*
X331251Y481495D01*
X331383Y482500D01*
X331251Y483505D01*
X330863Y484442D01*
X330246Y485246D01*
X329442Y485863D01*
X328505Y486251D01*
X327500Y486383D01*
D02*
G37*
G36*
X386500Y479335D02*
X385798Y479196D01*
X385202Y478798D01*
X384804Y478202D01*
X384665Y477500D01*
X384804Y476798D01*
X385202Y476202D01*
X385798Y475804D01*
X386500Y475665D01*
X387202Y475804D01*
X387798Y476202D01*
X388196Y476798D01*
X388335Y477500D01*
X388196Y478202D01*
X387798Y478798D01*
X387202Y479196D01*
X386500Y479335D01*
D02*
G37*
G36*
X437500Y479835D02*
X436798Y479696D01*
X436202Y479298D01*
X435804Y478702D01*
X435665Y478000D01*
X435804Y477298D01*
X436202Y476702D01*
X436798Y476304D01*
X437500Y476165D01*
X438202Y476304D01*
X438798Y476702D01*
X439196Y477298D01*
X439335Y478000D01*
X439196Y478702D01*
X438798Y479298D01*
X438202Y479696D01*
X437500Y479835D01*
D02*
G37*
G36*
X433500Y481835D02*
X432798Y481696D01*
X432202Y481298D01*
X431804Y480702D01*
X431665Y480000D01*
X431804Y479298D01*
X432202Y478702D01*
X432798Y478304D01*
X433500Y478165D01*
X434202Y478304D01*
X434798Y478702D01*
X435196Y479298D01*
X435335Y480000D01*
X435196Y480702D01*
X434798Y481298D01*
X434202Y481696D01*
X433500Y481835D01*
D02*
G37*
G36*
X470000Y456141D02*
X468802Y456023D01*
X467650Y455674D01*
X466588Y455106D01*
X465657Y454343D01*
X464894Y453412D01*
X464326Y452350D01*
X463977Y451198D01*
X463859Y450000D01*
X463977Y448802D01*
X464326Y447650D01*
X464894Y446588D01*
X465657Y445657D01*
X466588Y444894D01*
X467650Y444326D01*
X468802Y443977D01*
X470000Y443859D01*
X471198Y443977D01*
X472350Y444326D01*
X473412Y444894D01*
X474343Y445657D01*
X475106Y446588D01*
X475674Y447650D01*
X476023Y448802D01*
X476141Y450000D01*
X476023Y451198D01*
X475674Y452350D01*
X475106Y453412D01*
X474343Y454343D01*
X473412Y455106D01*
X472350Y455674D01*
X471198Y456023D01*
X470000Y456141D01*
D02*
G37*
G36*
X440000Y433883D02*
X438995Y433751D01*
X438058Y433363D01*
X437254Y432746D01*
X436637Y431942D01*
X436249Y431005D01*
X436117Y430000D01*
X436249Y428995D01*
X436637Y428058D01*
X437254Y427254D01*
X438058Y426637D01*
X438995Y426249D01*
X440000Y426117D01*
X441005Y426249D01*
X441942Y426637D01*
X442746Y427254D01*
X443363Y428058D01*
X443751Y428995D01*
X443883Y430000D01*
X443751Y431005D01*
X443363Y431942D01*
X442746Y432746D01*
X441942Y433363D01*
X441005Y433751D01*
X440000Y433883D01*
D02*
G37*
G36*
X450000D02*
X448995Y433751D01*
X448058Y433363D01*
X447254Y432746D01*
X446637Y431942D01*
X446249Y431005D01*
X446117Y430000D01*
X446249Y428995D01*
X446637Y428058D01*
X447254Y427254D01*
X448058Y426637D01*
X448995Y426249D01*
X450000Y426117D01*
X451005Y426249D01*
X451942Y426637D01*
X452746Y427254D01*
X453363Y428058D01*
X453751Y428995D01*
X453883Y430000D01*
X453751Y431005D01*
X453363Y431942D01*
X452746Y432746D01*
X451942Y433363D01*
X451005Y433751D01*
X450000Y433883D01*
D02*
G37*
G36*
X423500Y431335D02*
X422798Y431196D01*
X422202Y430798D01*
X421804Y430202D01*
X421665Y429500D01*
X421804Y428798D01*
X422202Y428202D01*
X422798Y427804D01*
X423500Y427665D01*
X424202Y427804D01*
X424798Y428202D01*
X425196Y428798D01*
X425335Y429500D01*
X425196Y430202D01*
X424798Y430798D01*
X424202Y431196D01*
X423500Y431335D01*
D02*
G37*
G36*
X330000Y434973D02*
X328713Y434804D01*
X327513Y434307D01*
X326483Y433517D01*
X325693Y432487D01*
X325196Y431287D01*
X325027Y430000D01*
X325196Y428713D01*
X325693Y427513D01*
X326483Y426483D01*
X327513Y425693D01*
X328713Y425196D01*
X330000Y425027D01*
X331287Y425196D01*
X332487Y425693D01*
X333517Y426483D01*
X334307Y427513D01*
X334804Y428713D01*
X334973Y430000D01*
X334804Y431287D01*
X334307Y432487D01*
X333517Y433517D01*
X332487Y434307D01*
X331287Y434804D01*
X330000Y434973D01*
D02*
G37*
G36*
X450000Y423883D02*
X448995Y423751D01*
X448058Y423363D01*
X447254Y422746D01*
X446637Y421942D01*
X446249Y421005D01*
X446117Y420000D01*
X446249Y418995D01*
X446637Y418058D01*
X447254Y417254D01*
X448058Y416637D01*
X448995Y416249D01*
X450000Y416117D01*
X451005Y416249D01*
X451942Y416637D01*
X452746Y417254D01*
X453363Y418058D01*
X453751Y418995D01*
X453883Y420000D01*
X453751Y421005D01*
X453363Y421942D01*
X452746Y422746D01*
X451942Y423363D01*
X451005Y423751D01*
X450000Y423883D01*
D02*
G37*
G36*
X463850Y423850D02*
X456150D01*
Y416150D01*
X463850D01*
Y423850D01*
D02*
G37*
G36*
X490000Y436141D02*
X488802Y436023D01*
X487650Y435674D01*
X486588Y435106D01*
X485657Y434343D01*
X484894Y433412D01*
X484326Y432350D01*
X483977Y431198D01*
X483859Y430000D01*
X483977Y428802D01*
X484326Y427650D01*
X484894Y426588D01*
X485657Y425657D01*
X486588Y424894D01*
X487650Y424326D01*
X488802Y423977D01*
X490000Y423859D01*
X491198Y423977D01*
X492350Y424326D01*
X493412Y424894D01*
X494343Y425657D01*
X495106Y426588D01*
X495674Y427650D01*
X496023Y428802D01*
X496141Y430000D01*
X496023Y431198D01*
X495674Y432350D01*
X495106Y433412D01*
X494343Y434343D01*
X493412Y435106D01*
X492350Y435674D01*
X491198Y436023D01*
X490000Y436141D01*
D02*
G37*
G36*
X427000Y434335D02*
X426298Y434196D01*
X425702Y433798D01*
X425304Y433202D01*
X425165Y432500D01*
X425304Y431798D01*
X425702Y431202D01*
X426298Y430804D01*
X427000Y430665D01*
X427702Y430804D01*
X428298Y431202D01*
X428696Y431798D01*
X428835Y432500D01*
X428696Y433202D01*
X428298Y433798D01*
X427702Y434196D01*
X427000Y434335D01*
D02*
G37*
G36*
X349000Y447335D02*
X348298Y447196D01*
X347702Y446798D01*
X347304Y446202D01*
X347165Y445500D01*
X347304Y444798D01*
X347702Y444202D01*
X348298Y443804D01*
X349000Y443665D01*
X349702Y443804D01*
X350298Y444202D01*
X350695Y444797D01*
X350697Y444798D01*
X351205Y444797D01*
X351304Y444298D01*
X351702Y443702D01*
X352298Y443304D01*
X353000Y443165D01*
X353702Y443304D01*
X354298Y443702D01*
X354696Y444298D01*
X354835Y445000D01*
X354696Y445702D01*
X354298Y446298D01*
X353702Y446696D01*
X353000Y446835D01*
X352298Y446696D01*
X351702Y446298D01*
X351305Y445703D01*
X351303Y445702D01*
X350795Y445703D01*
X350696Y446202D01*
X350298Y446798D01*
X349702Y447196D01*
X349000Y447335D01*
D02*
G37*
G36*
X480000Y444973D02*
X478713Y444804D01*
X477513Y444307D01*
X476483Y443517D01*
X475693Y442487D01*
X475196Y441287D01*
X475027Y440000D01*
X475196Y438713D01*
X475693Y437513D01*
X476483Y436483D01*
X477513Y435693D01*
X478713Y435196D01*
X480000Y435027D01*
X481287Y435196D01*
X482487Y435693D01*
X483517Y436483D01*
X484307Y437513D01*
X484804Y438713D01*
X484973Y440000D01*
X484804Y441287D01*
X484307Y442487D01*
X483517Y443517D01*
X482487Y444307D01*
X481287Y444804D01*
X480000Y444973D01*
D02*
G37*
G36*
X340000Y446141D02*
X338802Y446023D01*
X337650Y445674D01*
X336588Y445106D01*
X335657Y444343D01*
X334894Y443412D01*
X334326Y442350D01*
X333977Y441198D01*
X333859Y440000D01*
X333977Y438802D01*
X334326Y437650D01*
X334894Y436588D01*
X335657Y435657D01*
X336588Y434894D01*
X337650Y434326D01*
X338802Y433977D01*
X340000Y433859D01*
X341198Y433977D01*
X342350Y434326D01*
X343412Y434894D01*
X344343Y435657D01*
X344680Y436069D01*
X344869Y436042D01*
X345185Y435896D01*
X345304Y435298D01*
X345702Y434702D01*
X346243Y434341D01*
X346381Y433817D01*
X346304Y433702D01*
X346165Y433000D01*
X346304Y432298D01*
X346702Y431702D01*
X347298Y431304D01*
X348000Y431165D01*
X348702Y431304D01*
X349298Y431702D01*
X349696Y432298D01*
X349835Y433000D01*
X349696Y433702D01*
X349298Y434298D01*
X348757Y434659D01*
X348619Y435183D01*
X348696Y435298D01*
X348835Y436000D01*
X348696Y436702D01*
X348298Y437298D01*
X348071Y437449D01*
Y438051D01*
X348298Y438202D01*
X348696Y438798D01*
X348835Y439500D01*
X348696Y440202D01*
X348298Y440798D01*
X347702Y441196D01*
X347000Y441335D01*
X346522Y441240D01*
X346272Y441219D01*
X345919Y441544D01*
X345674Y442350D01*
X345106Y443412D01*
X344343Y444343D01*
X343412Y445106D01*
X342350Y445674D01*
X341198Y446023D01*
X340000Y446141D01*
D02*
G37*
G36*
X470000Y436141D02*
X468802Y436023D01*
X467650Y435674D01*
X466588Y435106D01*
X465657Y434343D01*
X464894Y433412D01*
X464350Y432395D01*
X464300Y432378D01*
X463850Y432617D01*
Y433850D01*
X456150D01*
Y426150D01*
X463850D01*
Y427383D01*
X464300Y427622D01*
X464350Y427605D01*
X464894Y426588D01*
X465657Y425657D01*
X466588Y424894D01*
X467650Y424326D01*
X468802Y423977D01*
X470000Y423859D01*
X471198Y423977D01*
X472350Y424326D01*
X473412Y424894D01*
X474343Y425657D01*
X475106Y426588D01*
X475674Y427650D01*
X476023Y428802D01*
X476141Y430000D01*
X476023Y431198D01*
X475674Y432350D01*
X475106Y433412D01*
X474343Y434343D01*
X473412Y435106D01*
X472350Y435674D01*
X471198Y436023D01*
X470000Y436141D01*
D02*
G37*
G36*
X320000Y446141D02*
X318802Y446023D01*
X317650Y445674D01*
X316588Y445106D01*
X315657Y444343D01*
X314894Y443412D01*
X314326Y442350D01*
X313977Y441198D01*
X313859Y440000D01*
X313977Y438802D01*
X314326Y437650D01*
X314894Y436588D01*
X315657Y435657D01*
X316588Y434894D01*
X317650Y434326D01*
X318802Y433977D01*
X320000Y433859D01*
X321198Y433977D01*
X322350Y434326D01*
X323412Y434894D01*
X324343Y435657D01*
X325106Y436588D01*
X325674Y437650D01*
X326023Y438802D01*
X326141Y440000D01*
X326023Y441198D01*
X325674Y442350D01*
X325106Y443412D01*
X324343Y444343D01*
X323412Y445106D01*
X322350Y445674D01*
X321198Y446023D01*
X320000Y446141D01*
D02*
G37*
G36*
X364000Y418335D02*
X363298Y418196D01*
X362702Y417798D01*
X362304Y417202D01*
X362165Y416500D01*
X362304Y415798D01*
X362702Y415202D01*
X363298Y414804D01*
X364000Y414665D01*
X364702Y414804D01*
X365298Y415202D01*
X365696Y415798D01*
X365835Y416500D01*
X365696Y417202D01*
X365298Y417798D01*
X364702Y418196D01*
X364000Y418335D01*
D02*
G37*
G36*
X387500Y441335D02*
X386798Y441196D01*
X386202Y440798D01*
X385804Y440202D01*
X385665Y439500D01*
X385804Y438798D01*
X386202Y438202D01*
X386798Y437804D01*
X387500Y437665D01*
X388202Y437804D01*
X388798Y438202D01*
X389196Y438798D01*
X389335Y439500D01*
X389196Y440202D01*
X388798Y440798D01*
X388202Y441196D01*
X387500Y441335D01*
D02*
G37*
G36*
X392000D02*
X391298Y441196D01*
X390702Y440798D01*
X390304Y440202D01*
X390165Y439500D01*
X390304Y438798D01*
X390702Y438202D01*
X391298Y437804D01*
X392000Y437665D01*
X392702Y437804D01*
X393298Y438202D01*
X393696Y438798D01*
X393835Y439500D01*
X393696Y440202D01*
X393298Y440798D01*
X392702Y441196D01*
X392000Y441335D01*
D02*
G37*
%LPD*%
D27*
X360000Y436000D02*
X360500Y436500D01*
Y441500D01*
D28*
X409600Y442400D02*
X414500Y437500D01*
X416000D01*
X881664Y490331D02*
X879998Y491997D01*
X876666D01*
X875000Y490331D01*
Y488664D01*
X876666Y486998D01*
X879998D01*
X881664Y485332D01*
Y483666D01*
X879998Y482000D01*
X876666D01*
X875000Y483666D01*
X884997Y482000D02*
X888329D01*
X886663D01*
Y488664D01*
X884997D01*
X896660Y478668D02*
X898326D01*
X899992Y480334D01*
Y488664D01*
X894993D01*
X893327Y486998D01*
Y483666D01*
X894993Y482000D01*
X899992D01*
X903324D02*
Y488664D01*
X908323D01*
X909989Y486998D01*
Y482000D01*
X914987Y488664D02*
X918319D01*
X919985Y486998D01*
Y482000D01*
X914987D01*
X913321Y483666D01*
X914987Y485332D01*
X919985D01*
X923318Y482000D02*
X926650D01*
X924984D01*
Y491997D01*
X923318D01*
X941645D02*
Y482000D01*
X948310D01*
X953308Y488664D02*
X956640D01*
X958306Y486998D01*
Y482000D01*
X953308D01*
X951642Y483666D01*
X953308Y485332D01*
X958306D01*
X961639Y488664D02*
Y483666D01*
X963305Y482000D01*
X968303D01*
Y480334D01*
X966637Y478668D01*
X964971D01*
X968303Y482000D02*
Y488664D01*
X976634Y482000D02*
X973302D01*
X971635Y483666D01*
Y486998D01*
X973302Y488664D01*
X976634D01*
X978300Y486998D01*
Y485332D01*
X971635D01*
X981632Y488664D02*
Y482000D01*
Y485332D01*
X983298Y486998D01*
X984964Y488664D01*
X986631D01*
X1008290Y482000D02*
X1001626D01*
X1008290Y488664D01*
Y490331D01*
X1006624Y491997D01*
X1003292D01*
X1001626Y490331D01*
D31*
X450000Y487500D02*
D03*
X378500Y483500D02*
D03*
X407500Y487500D02*
D03*
D37*
X393681D02*
D03*
X391319D02*
D03*
X409600Y442400D02*
D03*
X415900Y407100D02*
D03*
X397500Y436000D02*
D03*
X360000D02*
D03*
X358500Y458500D02*
D03*
X354000Y457500D02*
D03*
X351000Y454000D02*
D03*
X387500Y486000D02*
D03*
X387000Y481500D02*
D03*
X390500Y481000D02*
D03*
X400500Y423500D02*
D03*
X389000Y403000D02*
D03*
X401000Y393000D02*
D03*
X402500Y438000D02*
D03*
X428000Y437500D02*
D03*
X423500Y440500D02*
D03*
X416000Y437500D02*
D03*
X400500Y433500D02*
D03*
X367500Y413500D02*
D03*
X361500Y409000D02*
D03*
X360500Y414000D02*
D03*
X355500Y420000D02*
D03*
X371000Y416500D02*
D03*
X375000Y442264D02*
D03*
X368000Y442500D02*
D03*
X413700Y396200D02*
D03*
X393000Y416500D02*
D03*
X342500Y405000D02*
D03*
X360500Y441500D02*
D03*
X376000Y400000D02*
D03*
M02*
