G04 Layer_Color=32896*
%FSLAX25Y25*%
%MOIN*%
G70*
G01*
G75*
%ADD27C,0.01000*%
D27*
X886500Y778000D02*
Y783998D01*
X890499Y778000D01*
Y783998D01*
X893498Y778000D02*
X895497D01*
X896497Y779000D01*
Y780999D01*
X895497Y781999D01*
X893498D01*
X892498Y780999D01*
Y779000D01*
X893498Y778000D01*
X899496Y782998D02*
Y781999D01*
X898496D01*
X900496D01*
X899496D01*
Y779000D01*
X900496Y778000D01*
X906493D02*
X904494D01*
X903494Y779000D01*
Y780999D01*
X904494Y781999D01*
X906493D01*
X907493Y780999D01*
Y779999D01*
X903494D01*
X909493Y778000D02*
X912492D01*
X913491Y779000D01*
X912492Y779999D01*
X910492D01*
X909493Y780999D01*
X910492Y781999D01*
X913491D01*
X915491D02*
X916490D01*
Y780999D01*
X915491D01*
Y781999D01*
Y779000D02*
X916490D01*
Y778000D01*
X915491D01*
Y779000D01*
X886500Y722498D02*
X890499D01*
Y721498D01*
X886500Y717500D01*
Y716500D01*
X892498D02*
Y717500D01*
X893498D01*
Y716500D01*
X892498D01*
X903494Y722498D02*
Y716500D01*
Y719499D01*
X907493D01*
Y722498D01*
Y716500D01*
X910492D02*
X912492D01*
X913491Y717500D01*
Y719499D01*
X912492Y720499D01*
X910492D01*
X909493Y719499D01*
Y717500D01*
X910492Y716500D01*
X915491D02*
X917490D01*
X916490D01*
Y722498D01*
X915491D01*
X923488Y716500D02*
X921489D01*
X920489Y717500D01*
Y719499D01*
X921489Y720499D01*
X923488D01*
X924488Y719499D01*
Y718499D01*
X920489D01*
X926487Y716500D02*
X929486D01*
X930486Y717500D01*
X929486Y718499D01*
X927487D01*
X926487Y719499D01*
X927487Y720499D01*
X930486D01*
X938483D02*
Y717500D01*
X939483Y716500D01*
X940483Y717500D01*
X941482Y716500D01*
X942482Y717500D01*
Y720499D01*
X944481Y716500D02*
X946481D01*
X945481D01*
Y720499D01*
X944481D01*
X950479Y721498D02*
Y720499D01*
X949480D01*
X951479D01*
X950479D01*
Y717500D01*
X951479Y716500D01*
X954478Y722498D02*
Y716500D01*
Y719499D01*
X955478Y720499D01*
X957477D01*
X958477Y719499D01*
Y716500D01*
X966474Y720499D02*
X970473D01*
X966474Y716500D01*
X970473D01*
X975471D02*
X973472D01*
X972472Y717500D01*
Y719499D01*
X973472Y720499D01*
X975471D01*
X976471Y719499D01*
Y718499D01*
X972472D01*
X978470Y720499D02*
Y716500D01*
Y718499D01*
X979470Y719499D01*
X980470Y720499D01*
X981469D01*
X985468Y716500D02*
X987467D01*
X988467Y717500D01*
Y719499D01*
X987467Y720499D01*
X985468D01*
X984468Y719499D01*
Y717500D01*
X985468Y716500D01*
X1000463Y722498D02*
Y716500D01*
X997464D01*
X996464Y717500D01*
Y719499D01*
X997464Y720499D01*
X1000463D01*
X1002462Y716500D02*
X1004462D01*
X1003462D01*
Y720499D01*
X1002462D01*
X1008461D02*
X1010460D01*
X1011460Y719499D01*
Y716500D01*
X1008461D01*
X1007461Y717500D01*
X1008461Y718499D01*
X1011460D01*
X1013459Y716500D02*
Y720499D01*
X1014459D01*
X1015458Y719499D01*
Y716500D01*
Y719499D01*
X1016458Y720499D01*
X1017458Y719499D01*
Y716500D01*
X1022456D02*
X1020457D01*
X1019457Y717500D01*
Y719499D01*
X1020457Y720499D01*
X1022456D01*
X1023456Y719499D01*
Y718499D01*
X1019457D01*
X1026455Y721498D02*
Y720499D01*
X1025455D01*
X1027454D01*
X1026455D01*
Y717500D01*
X1027454Y716500D01*
X1033452D02*
X1031453D01*
X1030453Y717500D01*
Y719499D01*
X1031453Y720499D01*
X1033452D01*
X1034452Y719499D01*
Y718499D01*
X1030453D01*
X1036452Y720499D02*
Y716500D01*
Y718499D01*
X1037451Y719499D01*
X1038451Y720499D01*
X1039450D01*
X1048448Y714501D02*
Y720499D01*
X1051447D01*
X1052446Y719499D01*
Y717500D01*
X1051447Y716500D01*
X1048448D01*
X1055445Y720499D02*
X1057445D01*
X1058444Y719499D01*
Y716500D01*
X1055445D01*
X1054446Y717500D01*
X1055445Y718499D01*
X1058444D01*
X1064442Y722498D02*
Y716500D01*
X1061443D01*
X1060444Y717500D01*
Y719499D01*
X1061443Y720499D01*
X1064442D01*
X1066442Y716500D02*
X1069441D01*
X1070440Y717500D01*
X1069441Y718499D01*
X1067441D01*
X1066442Y719499D01*
X1067441Y720499D01*
X1070440D01*
X1079438D02*
X1081437D01*
X1082437Y719499D01*
Y716500D01*
X1079438D01*
X1078438Y717500D01*
X1079438Y718499D01*
X1082437D01*
X1084436Y720499D02*
Y716500D01*
Y718499D01*
X1085436Y719499D01*
X1086435Y720499D01*
X1087435D01*
X1093433Y716500D02*
X1091434D01*
X1090434Y717500D01*
Y719499D01*
X1091434Y720499D01*
X1093433D01*
X1094433Y719499D01*
Y718499D01*
X1090434D01*
X1102430Y720499D02*
Y717500D01*
X1103430Y716500D01*
X1106429D01*
Y720499D01*
X1108428Y716500D02*
Y720499D01*
X1111427D01*
X1112427Y719499D01*
Y716500D01*
X1114426Y714501D02*
Y720499D01*
X1117425D01*
X1118425Y719499D01*
Y717500D01*
X1117425Y716500D01*
X1114426D01*
X1120424D02*
X1122424D01*
X1121424D01*
Y722498D01*
X1120424D01*
X1126422Y720499D02*
X1128422D01*
X1129421Y719499D01*
Y716500D01*
X1126422D01*
X1125423Y717500D01*
X1126422Y718499D01*
X1129421D01*
X1132420Y721498D02*
Y720499D01*
X1131421D01*
X1133420D01*
X1132420D01*
Y717500D01*
X1133420Y716500D01*
X1139418D02*
X1137419D01*
X1136419Y717500D01*
Y719499D01*
X1137419Y720499D01*
X1139418D01*
X1140418Y719499D01*
Y718499D01*
X1136419D01*
X1146416Y722498D02*
Y716500D01*
X1143417D01*
X1142417Y717500D01*
Y719499D01*
X1143417Y720499D01*
X1146416D01*
X890499Y731998D02*
X888499Y730998D01*
X886500Y728999D01*
Y727000D01*
X887500Y726000D01*
X889499D01*
X890499Y727000D01*
Y727999D01*
X889499Y728999D01*
X886500D01*
X892498Y726000D02*
Y727000D01*
X893498D01*
Y726000D01*
X892498D01*
X907493Y730998D02*
X906493Y731998D01*
X904494D01*
X903494Y730998D01*
Y729999D01*
X904494Y728999D01*
X906493D01*
X907493Y727999D01*
Y727000D01*
X906493Y726000D01*
X904494D01*
X903494Y727000D01*
X909493Y726000D02*
X911492D01*
X910492D01*
Y729999D01*
X909493D01*
X914491Y726000D02*
X916490D01*
X915491D01*
Y731998D01*
X914491D01*
X919489Y726000D02*
Y731998D01*
Y727999D02*
X922488Y729999D01*
X919489Y727999D02*
X922488Y726000D01*
X925487D02*
X928486D01*
X929486Y727000D01*
X928486Y727999D01*
X926487D01*
X925487Y728999D01*
X926487Y729999D01*
X929486D01*
X935484D02*
X932485D01*
X931485Y728999D01*
Y727000D01*
X932485Y726000D01*
X935484D01*
X937484Y729999D02*
Y726000D01*
Y727999D01*
X938483Y728999D01*
X939483Y729999D01*
X940483D01*
X946481Y726000D02*
X944481D01*
X943482Y727000D01*
Y728999D01*
X944481Y729999D01*
X946481D01*
X947480Y728999D01*
Y727999D01*
X943482D01*
X952479Y726000D02*
X950479D01*
X949480Y727000D01*
Y728999D01*
X950479Y729999D01*
X952479D01*
X953478Y728999D01*
Y727999D01*
X949480D01*
X955478Y726000D02*
Y729999D01*
X958477D01*
X959476Y728999D01*
Y726000D01*
X967474Y729999D02*
Y727000D01*
X968474Y726000D01*
X969473Y727000D01*
X970473Y726000D01*
X971472Y727000D01*
Y729999D01*
X973472Y726000D02*
X975471D01*
X974471D01*
Y729999D01*
X973472D01*
X979470Y730998D02*
Y729999D01*
X978470D01*
X980470D01*
X979470D01*
Y727000D01*
X980470Y726000D01*
X983469Y731998D02*
Y726000D01*
Y728999D01*
X984468Y729999D01*
X986468D01*
X987467Y728999D01*
Y726000D01*
X995465Y729999D02*
Y727000D01*
X996464Y726000D01*
X997464Y727000D01*
X998464Y726000D01*
X999463Y727000D01*
Y729999D01*
X1001463Y731998D02*
Y726000D01*
Y728999D01*
X1002462Y729999D01*
X1004462D01*
X1005462Y728999D01*
Y726000D01*
X1007461D02*
X1009460D01*
X1008461D01*
Y729999D01*
X1007461D01*
X1013459Y730998D02*
Y729999D01*
X1012459D01*
X1014459D01*
X1013459D01*
Y727000D01*
X1014459Y726000D01*
X1020457D02*
X1018457D01*
X1017458Y727000D01*
Y728999D01*
X1018457Y729999D01*
X1020457D01*
X1021456Y728999D01*
Y727999D01*
X1017458D01*
X1032453Y726000D02*
X1030453D01*
X1029454Y727000D01*
Y728999D01*
X1030453Y729999D01*
X1032453D01*
X1033452Y728999D01*
Y727999D01*
X1029454D01*
X1035452Y724001D02*
Y729999D01*
X1038451D01*
X1039450Y728999D01*
Y727000D01*
X1038451Y726000D01*
X1035452D01*
X1042449D02*
X1044449D01*
X1045449Y727000D01*
Y728999D01*
X1044449Y729999D01*
X1042449D01*
X1041450Y728999D01*
Y727000D01*
X1042449Y726000D01*
X1047448Y729999D02*
X1051447Y726000D01*
X1049447Y727999D01*
X1051447Y729999D01*
X1047448Y726000D01*
X1053446Y729999D02*
Y727000D01*
X1054446Y726000D01*
X1057445D01*
Y725000D01*
X1056445Y724001D01*
X1055445D01*
X1057445Y726000D02*
Y729999D01*
X890499Y740998D02*
X886500D01*
Y737999D01*
X888499Y738999D01*
X889499D01*
X890499Y737999D01*
Y736000D01*
X889499Y735000D01*
X887500D01*
X886500Y736000D01*
X892498Y735000D02*
Y736000D01*
X893498D01*
Y735000D01*
X892498D01*
X907493Y739998D02*
X906493Y740998D01*
X904494D01*
X903494Y739998D01*
Y738999D01*
X904494Y737999D01*
X906493D01*
X907493Y736999D01*
Y736000D01*
X906493Y735000D01*
X904494D01*
X903494Y736000D01*
X910492Y735000D02*
X912492D01*
X913491Y736000D01*
Y737999D01*
X912492Y738999D01*
X910492D01*
X909493Y737999D01*
Y736000D01*
X910492Y735000D01*
X915491D02*
X917490D01*
X916490D01*
Y740998D01*
X915491D01*
X924488D02*
Y735000D01*
X921489D01*
X920489Y736000D01*
Y737999D01*
X921489Y738999D01*
X924488D01*
X929486Y735000D02*
X927487D01*
X926487Y736000D01*
Y737999D01*
X927487Y738999D01*
X929486D01*
X930486Y737999D01*
Y736999D01*
X926487D01*
X932485Y738999D02*
Y735000D01*
Y736999D01*
X933485Y737999D01*
X934484Y738999D01*
X935484D01*
X942482D02*
X939483D01*
X938483Y737999D01*
Y736000D01*
X939483Y735000D01*
X942482D01*
X945481D02*
X947480D01*
X948480Y736000D01*
Y737999D01*
X947480Y738999D01*
X945481D01*
X944481Y737999D01*
Y736000D01*
X945481Y735000D01*
X951479Y738999D02*
X953478D01*
X954478Y737999D01*
Y735000D01*
X951479D01*
X950479Y736000D01*
X951479Y736999D01*
X954478D01*
X957477Y739998D02*
Y738999D01*
X956477D01*
X958477D01*
X957477D01*
Y736000D01*
X958477Y735000D01*
X968474Y738999D02*
X970473D01*
X971472Y737999D01*
Y735000D01*
X968474D01*
X967474Y736000D01*
X968474Y736999D01*
X971472D01*
X974471Y735000D02*
Y739998D01*
Y737999D01*
X973472D01*
X975471D01*
X974471D01*
Y739998D01*
X975471Y740998D01*
X979470Y739998D02*
Y738999D01*
X978470D01*
X980470D01*
X979470D01*
Y736000D01*
X980470Y735000D01*
X986468D02*
X984468D01*
X983469Y736000D01*
Y737999D01*
X984468Y738999D01*
X986468D01*
X987467Y737999D01*
Y736999D01*
X983469D01*
X989467Y738999D02*
Y735000D01*
Y736999D01*
X990466Y737999D01*
X991466Y738999D01*
X992466D01*
X1001463Y735000D02*
X1004462D01*
X1005462Y736000D01*
X1004462Y736999D01*
X1002462D01*
X1001463Y737999D01*
X1002462Y738999D01*
X1005462D01*
X1008461Y735000D02*
X1010460D01*
X1011460Y736000D01*
Y737999D01*
X1010460Y738999D01*
X1008461D01*
X1007461Y737999D01*
Y736000D01*
X1008461Y735000D01*
X1013459D02*
X1015458D01*
X1014459D01*
Y740998D01*
X1013459D01*
X1022456D02*
Y735000D01*
X1019457D01*
X1018457Y736000D01*
Y737999D01*
X1019457Y738999D01*
X1022456D01*
X1027454Y735000D02*
X1025455D01*
X1024455Y736000D01*
Y737999D01*
X1025455Y738999D01*
X1027454D01*
X1028454Y737999D01*
Y736999D01*
X1024455D01*
X1030453Y738999D02*
Y735000D01*
Y736999D01*
X1031453Y737999D01*
X1032453Y738999D01*
X1033452D01*
X1036452Y735000D02*
Y738999D01*
X1037451D01*
X1038451Y737999D01*
Y735000D01*
Y737999D01*
X1039450Y738999D01*
X1040450Y737999D01*
Y735000D01*
X1043449Y738999D02*
X1045449D01*
X1046448Y737999D01*
Y735000D01*
X1043449D01*
X1042449Y736000D01*
X1043449Y736999D01*
X1046448D01*
X1048448Y735000D02*
X1051447D01*
X1052446Y736000D01*
X1051447Y736999D01*
X1049447D01*
X1048448Y737999D01*
X1049447Y738999D01*
X1052446D01*
X1054446Y735000D02*
Y740998D01*
Y736999D02*
X1057445Y738999D01*
X1054446Y736999D02*
X1057445Y735000D01*
X889499Y744000D02*
Y749998D01*
X886500Y746999D01*
X890499D01*
X892498Y744000D02*
Y745000D01*
X893498D01*
Y744000D01*
X892498D01*
X907493Y748998D02*
X906493Y749998D01*
X904494D01*
X903494Y748998D01*
Y747999D01*
X904494Y746999D01*
X906493D01*
X907493Y745999D01*
Y745000D01*
X906493Y744000D01*
X904494D01*
X903494Y745000D01*
X910492Y744000D02*
X912492D01*
X913491Y745000D01*
Y746999D01*
X912492Y747999D01*
X910492D01*
X909493Y746999D01*
Y745000D01*
X910492Y744000D01*
X915491D02*
X917490D01*
X916490D01*
Y749998D01*
X915491D01*
X924488D02*
Y744000D01*
X921489D01*
X920489Y745000D01*
Y746999D01*
X921489Y747999D01*
X924488D01*
X929486Y744000D02*
X927487D01*
X926487Y745000D01*
Y746999D01*
X927487Y747999D01*
X929486D01*
X930486Y746999D01*
Y745999D01*
X926487D01*
X932485Y747999D02*
Y744000D01*
Y745999D01*
X933485Y746999D01*
X934484Y747999D01*
X935484D01*
X938483Y744000D02*
Y747999D01*
X939483D01*
X940483Y746999D01*
Y744000D01*
Y746999D01*
X941482Y747999D01*
X942482Y746999D01*
Y744000D01*
X945481Y747999D02*
X947480D01*
X948480Y746999D01*
Y744000D01*
X945481D01*
X944481Y745000D01*
X945481Y745999D01*
X948480D01*
X950479Y744000D02*
X953478D01*
X954478Y745000D01*
X953478Y745999D01*
X951479D01*
X950479Y746999D01*
X951479Y747999D01*
X954478D01*
X956477Y744000D02*
Y749998D01*
Y745999D02*
X959476Y747999D01*
X956477Y745999D02*
X959476Y744000D01*
X968474Y747999D02*
Y745000D01*
X969473Y744000D01*
X970473Y745000D01*
X971472Y744000D01*
X972472Y745000D01*
Y747999D01*
X974471Y744000D02*
X976471D01*
X975471D01*
Y747999D01*
X974471D01*
X980470Y748998D02*
Y747999D01*
X979470D01*
X981469D01*
X980470D01*
Y745000D01*
X981469Y744000D01*
X984468Y749998D02*
Y744000D01*
Y746999D01*
X985468Y747999D01*
X987467D01*
X988467Y746999D01*
Y744000D01*
X996464Y749998D02*
Y744000D01*
X1000463D01*
X1002462D02*
Y745000D01*
X1003462D01*
Y744000D01*
X1002462D01*
X1007461D02*
Y749998D01*
X1010460D01*
X1011460Y748998D01*
Y746999D01*
X1010460Y745999D01*
X1007461D01*
X1013459Y744000D02*
Y745000D01*
X1014459D01*
Y744000D01*
X1013459D01*
X1018457Y749998D02*
X1020457D01*
X1019457D01*
Y744000D01*
X1018457D01*
X1020457D01*
X1024455Y743000D02*
X1025455Y744000D01*
Y745000D01*
X1024455D01*
Y744000D01*
X1025455D01*
X1024455Y743000D01*
X1023456Y742001D01*
X1039450Y748998D02*
X1038451Y749998D01*
X1036452D01*
X1035452Y748998D01*
Y745000D01*
X1036452Y744000D01*
X1038451D01*
X1039450Y745000D01*
X1042449Y744000D02*
X1044449D01*
X1045449Y745000D01*
Y746999D01*
X1044449Y747999D01*
X1042449D01*
X1041450Y746999D01*
Y745000D01*
X1042449Y744000D01*
X1047448D02*
X1049447D01*
X1048448D01*
Y749998D01*
X1047448D01*
X1053446Y744000D02*
X1055445D01*
X1056445Y745000D01*
Y746999D01*
X1055445Y747999D01*
X1053446D01*
X1052446Y746999D01*
Y745000D01*
X1053446Y744000D01*
X1058444Y747999D02*
Y744000D01*
Y745999D01*
X1059444Y746999D01*
X1060444Y747999D01*
X1061443D01*
X1070440Y744000D02*
X1072440D01*
X1071440D01*
Y747999D01*
X1070440D01*
X1075439Y744000D02*
X1078438D01*
X1079438Y745000D01*
X1078438Y745999D01*
X1076439D01*
X1075439Y746999D01*
X1076439Y747999D01*
X1079438D01*
X1091434Y748998D02*
X1090434Y749998D01*
X1088435D01*
X1087435Y748998D01*
Y745000D01*
X1088435Y744000D01*
X1090434D01*
X1091434Y745000D01*
Y746999D01*
X1089434D01*
X1093433Y747999D02*
Y744000D01*
Y745999D01*
X1094433Y746999D01*
X1095432Y747999D01*
X1096432D01*
X1102430Y744000D02*
X1100431D01*
X1099431Y745000D01*
Y746999D01*
X1100431Y747999D01*
X1102430D01*
X1103430Y746999D01*
Y745999D01*
X1099431D01*
X1108428Y744000D02*
X1106429D01*
X1105429Y745000D01*
Y746999D01*
X1106429Y747999D01*
X1108428D01*
X1109428Y746999D01*
Y745999D01*
X1105429D01*
X1111427Y744000D02*
Y747999D01*
X1114426D01*
X1115426Y746999D01*
Y744000D01*
X886500Y757498D02*
X887500Y758498D01*
X889499D01*
X890499Y757498D01*
Y756499D01*
X889499Y755499D01*
X888499D01*
X889499D01*
X890499Y754499D01*
Y753500D01*
X889499Y752500D01*
X887500D01*
X886500Y753500D01*
X892498Y752500D02*
Y753500D01*
X893498D01*
Y752500D01*
X892498D01*
X903494D02*
Y756499D01*
X905494Y758498D01*
X907493Y756499D01*
Y752500D01*
Y755499D01*
X903494D01*
X909493Y752500D02*
X911492D01*
X910492D01*
Y758498D01*
X909493D01*
X914491Y752500D02*
X916490D01*
X915491D01*
Y758498D01*
X914491D01*
X925487D02*
Y752500D01*
Y755499D01*
X926487Y756499D01*
X928486D01*
X929486Y755499D01*
Y752500D01*
X932485D02*
X934484D01*
X935484Y753500D01*
Y755499D01*
X934484Y756499D01*
X932485D01*
X931485Y755499D01*
Y753500D01*
X932485Y752500D01*
X937484D02*
X939483D01*
X938483D01*
Y758498D01*
X937484D01*
X945481Y752500D02*
X943482D01*
X942482Y753500D01*
Y755499D01*
X943482Y756499D01*
X945481D01*
X946481Y755499D01*
Y754499D01*
X942482D01*
X954478Y752500D02*
X957477D01*
X958477Y753500D01*
X957477Y754499D01*
X955478D01*
X954478Y755499D01*
X955478Y756499D01*
X958477D01*
X960476Y752500D02*
X962475D01*
X961476D01*
Y756499D01*
X960476D01*
X965474D02*
X969473D01*
X965474Y752500D01*
X969473D01*
X974471D02*
X972472D01*
X971472Y753500D01*
Y755499D01*
X972472Y756499D01*
X974471D01*
X975471Y755499D01*
Y754499D01*
X971472D01*
X977471Y752500D02*
X980470D01*
X981469Y753500D01*
X980470Y754499D01*
X978470D01*
X977471Y755499D01*
X978470Y756499D01*
X981469D01*
X990466D02*
X992466D01*
X993465Y755499D01*
Y752500D01*
X990466D01*
X989467Y753500D01*
X990466Y754499D01*
X993465D01*
X995465Y756499D02*
Y752500D01*
Y754499D01*
X996464Y755499D01*
X997464Y756499D01*
X998464D01*
X1004462Y752500D02*
X1002462D01*
X1001463Y753500D01*
Y755499D01*
X1002462Y756499D01*
X1004462D01*
X1005462Y755499D01*
Y754499D01*
X1001463D01*
X1014459Y756499D02*
X1016458D01*
X1017458Y755499D01*
Y752500D01*
X1014459D01*
X1013459Y753500D01*
X1014459Y754499D01*
X1017458D01*
X1020457Y752500D02*
Y757498D01*
Y755499D01*
X1019457D01*
X1021456D01*
X1020457D01*
Y757498D01*
X1021456Y758498D01*
X1025455Y757498D02*
Y756499D01*
X1024455D01*
X1026455D01*
X1025455D01*
Y753500D01*
X1026455Y752500D01*
X1032453D02*
X1030453D01*
X1029454Y753500D01*
Y755499D01*
X1030453Y756499D01*
X1032453D01*
X1033452Y755499D01*
Y754499D01*
X1029454D01*
X1035452Y756499D02*
Y752500D01*
Y754499D01*
X1036452Y755499D01*
X1037451Y756499D01*
X1038451D01*
X1047448Y750501D02*
Y756499D01*
X1050447D01*
X1051447Y755499D01*
Y753500D01*
X1050447Y752500D01*
X1047448D01*
X1053446D02*
X1055445D01*
X1054446D01*
Y758498D01*
X1053446D01*
X1059444Y756499D02*
X1061443D01*
X1062443Y755499D01*
Y752500D01*
X1059444D01*
X1058444Y753500D01*
X1059444Y754499D01*
X1062443D01*
X1065442Y757498D02*
Y756499D01*
X1064442D01*
X1066442D01*
X1065442D01*
Y753500D01*
X1066442Y752500D01*
X1069441D02*
X1071440D01*
X1070440D01*
Y756499D01*
X1069441D01*
X1074439Y752500D02*
Y756499D01*
X1077438D01*
X1078438Y755499D01*
Y752500D01*
X1082437Y750501D02*
X1083436D01*
X1084436Y751500D01*
Y756499D01*
X1081437D01*
X1080437Y755499D01*
Y753500D01*
X1081437Y752500D01*
X1084436D01*
X890499Y760500D02*
X886500D01*
X890499Y764499D01*
Y765498D01*
X889499Y766498D01*
X887500D01*
X886500Y765498D01*
X892498Y760500D02*
Y761500D01*
X893498D01*
Y760500D01*
X892498D01*
X907493Y766498D02*
X903494D01*
Y763499D01*
X905494D01*
X903494D01*
Y760500D01*
X910492D02*
X912492D01*
X913491Y761500D01*
Y763499D01*
X912492Y764499D01*
X910492D01*
X909493Y763499D01*
Y761500D01*
X910492Y760500D01*
X915491D02*
X917490D01*
X916490D01*
Y764499D01*
X915491D01*
X920489Y760500D02*
X922488D01*
X921489D01*
Y766498D01*
X920489D01*
X925487Y760500D02*
X928486D01*
X929486Y761500D01*
X928486Y762499D01*
X926487D01*
X925487Y763499D01*
X926487Y764499D01*
X929486D01*
X938483Y765498D02*
Y764499D01*
X937484D01*
X939483D01*
X938483D01*
Y761500D01*
X939483Y760500D01*
X943482D02*
X945481D01*
X946481Y761500D01*
Y763499D01*
X945481Y764499D01*
X943482D01*
X942482Y763499D01*
Y761500D01*
X943482Y760500D01*
X955478D02*
Y765498D01*
Y763499D01*
X954478D01*
X956477D01*
X955478D01*
Y765498D01*
X956477Y766498D01*
X959476Y760500D02*
X961476D01*
X960476D01*
Y764499D01*
X959476D01*
X964475Y760500D02*
Y764499D01*
X967474D01*
X968474Y763499D01*
Y760500D01*
X970473D02*
X972472D01*
X971472D01*
Y764499D01*
X970473D01*
X975471Y760500D02*
X978470D01*
X979470Y761500D01*
X978470Y762499D01*
X976471D01*
X975471Y763499D01*
X976471Y764499D01*
X979470D01*
X981469Y766498D02*
Y760500D01*
Y763499D01*
X982469Y764499D01*
X984468D01*
X985468Y763499D01*
Y760500D01*
X994465Y764499D02*
X996464D01*
X997464Y763499D01*
Y760500D01*
X994465D01*
X993465Y761500D01*
X994465Y762499D01*
X997464D01*
X1000463Y765498D02*
Y764499D01*
X999463D01*
X1001463D01*
X1000463D01*
Y761500D01*
X1001463Y760500D01*
X1010460D02*
X1012459D01*
X1011460D01*
Y766498D01*
X1010460Y765498D01*
X1016458Y760500D02*
X1018457D01*
X1019457Y761500D01*
Y763499D01*
X1018457Y764499D01*
X1016458D01*
X1015458Y763499D01*
Y761500D01*
X1016458Y760500D01*
X1021456Y764499D02*
X1025455D01*
X1021456Y760500D01*
X1025455D01*
X886500Y769000D02*
X888499D01*
X887500D01*
Y774998D01*
X886500Y773998D01*
X891498Y769000D02*
Y770000D01*
X892498D01*
Y769000D01*
X891498D01*
X902495Y774998D02*
Y769000D01*
X905494D01*
X906493Y770000D01*
Y770999D01*
X905494Y771999D01*
X902495D01*
X905494D01*
X906493Y772999D01*
Y773998D01*
X905494Y774998D01*
X902495D01*
X909493Y772999D02*
X911492D01*
X912492Y771999D01*
Y769000D01*
X909493D01*
X908493Y770000D01*
X909493Y770999D01*
X912492D01*
X914491Y769000D02*
X917490D01*
X918490Y770000D01*
X917490Y770999D01*
X915491D01*
X914491Y771999D01*
X915491Y772999D01*
X918490D01*
X923488Y769000D02*
X921489D01*
X920489Y770000D01*
Y771999D01*
X921489Y772999D01*
X923488D01*
X924488Y771999D01*
Y770999D01*
X920489D01*
X932485Y769000D02*
Y772999D01*
X933485D01*
X934484Y771999D01*
Y769000D01*
Y771999D01*
X935484Y772999D01*
X936484Y771999D01*
Y769000D01*
X939483Y772999D02*
X941482D01*
X942482Y771999D01*
Y769000D01*
X939483D01*
X938483Y770000D01*
X939483Y770999D01*
X942482D01*
X945481Y773998D02*
Y772999D01*
X944481D01*
X946481D01*
X945481D01*
Y770000D01*
X946481Y769000D01*
X952479D02*
X950479D01*
X949480Y770000D01*
Y771999D01*
X950479Y772999D01*
X952479D01*
X953478Y771999D01*
Y770999D01*
X949480D01*
X955478Y772999D02*
Y769000D01*
Y770999D01*
X956477Y771999D01*
X957477Y772999D01*
X958477D01*
X961476Y769000D02*
X963475D01*
X962475D01*
Y772999D01*
X961476D01*
X967474D02*
X969473D01*
X970473Y771999D01*
Y769000D01*
X967474D01*
X966474Y770000D01*
X967474Y770999D01*
X970473D01*
X972472Y769000D02*
X974471D01*
X973472D01*
Y774998D01*
X972472D01*
X983469Y769000D02*
X985468D01*
X984468D01*
Y772999D01*
X983469D01*
X988467Y769000D02*
X991466D01*
X992466Y770000D01*
X991466Y770999D01*
X989467D01*
X988467Y771999D01*
X989467Y772999D01*
X992466D01*
X1000463Y773998D02*
X1001463Y774998D01*
X1003462D01*
X1004462Y773998D01*
Y770000D01*
X1003462Y769000D01*
X1001463D01*
X1000463Y770000D01*
Y773998D01*
X1006461Y769000D02*
Y770000D01*
X1007461D01*
Y769000D01*
X1006461D01*
X1011460Y773998D02*
X1012459Y774998D01*
X1014459D01*
X1015458Y773998D01*
Y770000D01*
X1014459Y769000D01*
X1012459D01*
X1011460Y770000D01*
Y773998D01*
X1021456Y774998D02*
X1019457Y773998D01*
X1017458Y771999D01*
Y770000D01*
X1018457Y769000D01*
X1020457D01*
X1021456Y770000D01*
Y770999D01*
X1020457Y771999D01*
X1017458D01*
X1027454Y769000D02*
X1023456D01*
X1027454Y772999D01*
Y773998D01*
X1026455Y774998D01*
X1024455D01*
X1023456Y773998D01*
X1036452D02*
Y772999D01*
X1035452D01*
X1037451D01*
X1036452D01*
Y770000D01*
X1037451Y769000D01*
X1040450Y774998D02*
Y769000D01*
Y771999D01*
X1041450Y772999D01*
X1043449D01*
X1044449Y771999D01*
Y769000D01*
X1046448D02*
X1048448D01*
X1047448D01*
Y772999D01*
X1046448D01*
X1055445D02*
X1052446D01*
X1051447Y771999D01*
Y770000D01*
X1052446Y769000D01*
X1055445D01*
X1057445D02*
Y774998D01*
Y770999D02*
X1060444Y772999D01*
X1057445Y770999D02*
X1060444Y769000D01*
X1073440Y774998D02*
X1069441D01*
Y771999D01*
X1071440D01*
X1069441D01*
Y769000D01*
X1075439D02*
Y774998D01*
X1078438D01*
X1079438Y773998D01*
Y771999D01*
X1078438Y770999D01*
X1075439D01*
X1077438D02*
X1079438Y769000D01*
X1084436D02*
Y774998D01*
X1081437Y771999D01*
X1085436D01*
M02*
